<svg width="22" height="23" viewBox="0 0 22 23" fill="none" xmlns="http://www.w3.org/2000/svg">
<path d="M14.0807 2.66902C13.8636 1.14751 12.5392 0 11.0002 0C10.0105 0 9.07053 0.477603 8.4861 1.27804C8.36672 1.44128 8.40244 1.67027 8.56568 1.78964C8.72838 1.90859 8.95791 1.8733 9.07707 1.70985C9.52443 1.09775 10.2432 0.732225 11.0001 0.732225C12.1771 0.732225 13.1897 1.60935 13.3558 2.77231C13.3819 2.95496 13.5386 3.08678 13.7179 3.08678C13.7349 3.08678 13.7525 3.08549 13.77 3.08313C13.9701 3.05449 14.1092 2.86905 14.0807 2.66902Z" fill="#660099"/>
<path d="M19.3678 6.76726L18.2695 4.93675C18.2034 4.82639 18.0843 4.75903 17.9556 4.75903H16.9031C16.701 4.75903 16.537 4.92302 16.537 5.12509C16.537 5.32716 16.701 5.49115 16.9031 5.49115H17.7483L18.4073 6.58943H3.59218L4.25115 5.49115H4.63887C4.84094 5.49115 5.00493 5.32716 5.00493 5.12509C5.00493 4.92302 4.84094 4.75903 4.63887 4.75903H4.04393C3.91523 4.75903 3.79607 4.82639 3.73 4.93675L2.63172 6.76726C2.56382 6.88052 2.56222 7.02135 2.6271 7.13611C2.69199 7.25087 2.81362 7.32187 2.94565 7.32187H19.0538C19.1859 7.32187 19.3074 7.25087 19.3724 7.13611C19.4374 7.02135 19.4357 6.88031 19.3678 6.76726Z" fill="#660099"/>
<path d="M17.5433 3.39174C17.492 3.30905 17.4102 3.25038 17.3156 3.22829L12.325 2.06104C12.2305 2.03884 12.1309 2.05536 12.0483 2.10641C11.966 2.15768 11.9072 2.23951 11.8851 2.33411L11.5088 3.94292C11.4626 4.13973 11.5849 4.33665 11.7818 4.38256C11.9786 4.42868 12.1758 4.30641 12.2217 4.10949L12.5147 2.8573L16.7923 3.85787L16.1201 6.73175C16.074 6.92856 16.1963 7.12548 16.3932 7.17138C16.4214 7.17792 16.4494 7.18104 16.4771 7.18104C16.6433 7.18104 16.7938 7.06713 16.833 6.89842L17.5886 3.66814C17.6109 3.57365 17.5946 3.47411 17.5433 3.39174Z" fill="#660099"/>
<path d="M11.1937 4.25708L10.8601 1.43576C10.8487 1.33933 10.7995 1.25128 10.7231 1.19122C10.6468 1.13115 10.5504 1.1037 10.4535 1.11507L4.33036 1.83882C4.12969 1.86263 3.98618 2.04453 4.00988 2.24542L4.566 6.95098C4.58809 7.13728 4.74608 7.27425 4.92916 7.27425C4.94343 7.27425 4.95812 7.27328 4.97271 7.27167C5.17327 7.24786 5.31678 7.06596 5.29318 6.86507L4.77997 2.52278L10.176 1.88504L10.4665 4.34277C10.4903 4.54355 10.6713 4.6862 10.8731 4.66346C11.0738 4.63987 11.2173 4.45786 11.1937 4.25708Z" fill="#660099"/>
<path d="M14.0891 6.81664L13.3624 3.79486C13.3397 3.70058 13.2804 3.61896 13.1977 3.56823C13.115 3.51793 13.0158 3.50216 12.9209 3.52468L7.02327 4.94301C6.82667 4.9902 6.70569 5.18798 6.75288 5.38458L7.11604 6.89493C7.16323 7.09174 7.36101 7.21283 7.5575 7.16532C7.7541 7.11813 7.87508 6.92035 7.82789 6.72375L7.55021 5.56927L12.7359 4.32233L13.377 6.98803C13.4172 7.15588 13.5674 7.2685 13.7327 7.2685C13.7611 7.2685 13.7898 7.26517 13.8187 7.2582C14.0153 7.2109 14.1363 7.01323 14.0891 6.81664Z" fill="#660099"/>
<path d="M19.42 6.93713C19.4099 6.74257 19.2493 6.58984 19.0543 6.58984H2.9461C2.75111 6.58984 2.59045 6.74247 2.58036 6.93713L1.84814 21.2148C1.84299 21.315 1.87924 21.413 1.94831 21.4857C2.01749 21.5583 2.11338 21.5996 2.21377 21.5996H19.7863C19.8866 21.5996 19.9826 21.5585 20.0521 21.4857C20.121 21.413 20.1573 21.3151 20.1523 21.2148L19.42 6.93713ZM2.59903 20.8674L3.29371 7.32196H18.7063L19.4009 20.8674H2.59903Z" fill="#660099"/>
<path d="M13.7457 8.05408C13.1401 8.05408 12.6475 8.5467 12.6475 9.15236C12.6475 9.75802 13.1401 10.2506 13.7457 10.2506C14.3514 10.2506 14.844 9.75802 14.844 9.15236C14.844 8.5467 14.3514 8.05408 13.7457 8.05408ZM13.7457 9.51853C13.5438 9.51853 13.3797 9.35432 13.3797 9.15247C13.3797 8.95061 13.5439 8.78641 13.7457 8.78641C13.9476 8.78641 14.1118 8.95061 14.1118 9.15247C14.1118 9.35432 13.9476 9.51853 13.7457 9.51853Z" fill="#660099"/>
<path d="M8.25405 8.05408C7.64838 8.05408 7.15576 8.5467 7.15576 9.15236C7.15576 9.75802 7.64838 10.2506 8.25405 10.2506C8.85971 10.2506 9.35233 9.75802 9.35233 9.15236C9.35233 8.5467 8.85971 8.05408 8.25405 8.05408ZM8.25405 9.51853C8.05219 9.51853 7.88799 9.35432 7.88799 9.15247C7.88799 8.95061 8.05219 8.78641 8.25405 8.78641C8.4559 8.78641 8.6201 8.95061 8.6201 9.15247C8.6201 9.35432 8.4559 9.51853 8.25405 9.51853Z" fill="#660099"/>
<path d="M13.7457 9.15234H13.7175C13.5154 9.15234 13.3514 9.31634 13.3514 9.5184C13.3514 9.56838 13.3613 9.61611 13.3796 9.65955V11.5319C13.3796 12.8439 12.3121 13.9115 11 13.9115C9.6878 13.9115 8.6203 12.844 8.6203 11.5319V9.51851C8.6203 9.31644 8.45631 9.15245 8.25424 9.15245C8.05218 9.15245 7.88818 9.31644 7.88818 9.51851V11.532C7.88818 13.2478 9.2841 14.6438 11 14.6438C12.7158 14.6438 14.1117 13.2478 14.1117 11.532V9.51851C14.1117 9.31644 13.9477 9.15234 13.7457 9.15234Z" fill="#660099"/>
<rect x="0.500488" y="22.3225" width="28.7403" height="0.958011" rx="0.479006" transform="rotate(-45 0.500488 22.3225)" fill="#660099"/>
<rect x="20.8232" y="23" width="28.7403" height="0.958011" rx="0.479006" transform="rotate(-135 20.8232 23)" fill="#660099"/>
</svg>
