<svg width="102" height="22" viewBox="0 0 102 22" fill="none" xmlns="http://www.w3.org/2000/svg">
<path d="M18.4648 19.8468V9.29498C18.4648 8.22196 19.1743 7.44092 20.1464 7.44092H21.7191C22.6912 7.44092 23.3968 8.21817 23.3968 9.29498V19.8468C23.3968 20.9198 22.6912 21.7009 21.7191 21.7009H20.1464C19.1743 21.7009 18.4648 20.9236 18.4648 19.8468Z" fill="white"/>
<path d="M23.7406 2.80182C23.7406 4.35041 22.501 5.60365 20.9694 5.60365C19.4378 5.60365 18.1982 4.35041 18.1982 2.80182C18.1982 1.25325 19.4378 0 20.9694 0C22.501 0 23.7406 1.25325 23.7406 2.80182Z" fill="white"/>
<path d="M42.6621 14.5603C42.6621 10.5639 45.944 7.31372 49.9831 7.31372C54.0182 7.31372 57.3037 10.5639 57.3037 14.5603C57.3037 18.5567 54.0182 21.8069 49.9831 21.8069C45.9476 21.8069 42.6621 18.5567 42.6621 14.5603ZM47.1179 14.5603C47.1179 16.1551 48.4005 17.4544 49.9831 17.4544C51.5621 17.4544 52.8483 16.1551 52.8483 14.5603C52.8483 12.9618 51.5621 11.6624 49.9831 11.6624C48.4005 11.6624 47.1179 12.9618 47.1179 14.5603Z" fill="white"/>
<path d="M33.6955 21.4182C32.792 21.4182 31.8996 21.2515 31.461 20.4406C31.0223 19.6335 26.092 10.8955 25.7058 10.2059C25.3534 9.57683 25.4809 8.48551 26.347 8.04976C26.8756 7.78453 27.1381 7.64811 27.5992 7.41317C28.4166 7.00014 29.4364 7.08729 30.0775 8.21649C30.4637 8.89097 33.6731 15.3782 33.6731 15.3782H33.703C33.703 15.3782 36.9163 8.89475 37.3022 8.21649C37.9433 7.08729 38.9671 7.00014 39.7843 7.41317C40.2494 7.64811 40.5079 7.78453 41.0367 8.04976C41.9028 8.48173 42.0338 9.57683 41.6778 10.2059C41.2051 11.0471 36.3839 19.6411 35.9226 20.4406C35.4577 21.2402 34.5916 21.4182 33.6955 21.4182Z" fill="white"/>
<path d="M8.17163 21.4182C7.26773 21.4182 6.3751 21.2515 5.94005 20.4406C5.50123 19.6335 0.56927 10.8955 0.182962 10.2059C-0.169589 9.57683 -0.0420708 8.48551 0.824304 8.04976C1.34938 7.78453 1.61192 7.64811 2.07699 7.41317C2.89085 7.00392 3.91475 7.09107 4.5561 8.21649C4.94242 8.89097 8.14912 15.3782 8.14912 15.3782H8.18287C8.18287 15.3782 11.3971 8.89475 11.7796 8.21649C12.421 7.08729 13.4449 7.00014 14.2588 7.41317C14.7238 7.64811 14.9864 7.78831 15.5115 8.04976C16.3816 8.48173 16.5091 9.57683 16.1565 10.2059C15.6802 11.0471 10.8608 19.6411 10.3957 20.4406C9.93439 21.2402 9.06801 21.4182 8.16789 21.4182H8.17163Z" fill="white"/>
<path fill-rule="evenodd" clip-rule="evenodd" d="M73.8532 4.36138C75.6025 4.36138 77.1901 5.05879 78.3574 6.1928C78.7542 6.63796 79.3301 6.91797 79.9708 6.91797C81.1681 6.91797 82.1386 5.94038 82.1386 4.73445C82.1386 4.08684 81.8587 3.50507 81.4141 3.1052C79.4638 1.18405 76.7957 0 73.8532 0C67.8786 0 63.0352 4.88164 63.0352 10.9034C63.0352 16.9252 67.8786 21.8069 73.8532 21.8069C77.3942 21.8069 80.5378 20.0922 82.5113 17.4418C84.486 20.0922 87.6317 21.8069 91.1749 21.8069C97.1534 21.8069 102 16.9253 102 10.9034C102 4.88164 97.1534 0 91.1749 0C88.1885 0 85.4846 1.21806 83.5261 3.18783L83.529 3.19076C83.1381 3.58587 82.8964 4.13164 82.8964 4.73446C82.8964 5.94038 83.8638 6.91797 85.0572 6.91797C85.6864 6.91797 86.2529 6.64617 86.6478 6.2124C87.8176 5.06684 89.4145 4.36138 91.1749 4.36138C94.762 4.36138 97.67 7.29036 97.67 10.9034C97.67 14.5165 94.762 17.4455 91.1749 17.4455C87.5901 17.4455 84.6836 14.5203 84.6799 10.9104H84.6714C84.6714 10.9081 84.6714 10.9058 84.6714 10.9035C84.6714 9.68973 83.7027 8.70581 82.5078 8.70581H76.0169C74.822 8.70581 73.8533 9.68973 73.8533 10.9035C73.8533 12.1172 74.822 13.1011 76.0169 13.1011H79.9688C79.073 15.6332 76.6731 17.4455 73.8532 17.4455C70.2684 17.4455 67.3624 14.5165 67.3624 10.9034C67.3624 7.29036 70.2684 4.36138 73.8532 4.36138Z" fill="white"/>
</svg>
