<svg width="40" height="23" viewBox="0 0 40 23" fill="none" xmlns="http://www.w3.org/2000/svg">
<path fill-rule="evenodd" clip-rule="evenodd" d="M11.239 4.94036C12.9882 4.94036 14.5759 5.63777 15.7431 6.77178C16.14 7.21694 16.7158 7.49695 17.3566 7.49695C18.5538 7.49695 19.5244 6.51936 19.5244 5.31343C19.5244 4.66582 19.2445 4.08405 18.7999 3.68418C16.8496 1.76303 14.1815 0.578979 11.239 0.578979C5.26432 0.578979 0.420898 5.46062 0.420898 11.4824C0.420898 17.5042 5.26432 22.3859 11.239 22.3859C14.7799 22.3859 17.9235 20.6712 19.897 18.0208C21.8718 20.6712 25.0174 22.3859 28.5607 22.3859C34.5392 22.3859 39.3857 17.5042 39.3857 11.4824C39.3857 5.46062 34.5392 0.578979 28.5607 0.578979C25.5743 0.578979 22.8703 1.79704 20.9118 3.76681L20.9147 3.76974C20.5239 4.16485 20.2821 4.71062 20.2821 5.31343C20.2821 6.51936 21.2496 7.49695 22.4429 7.49695C23.0722 7.49695 23.6386 7.22515 24.0335 6.79138C25.2033 5.64582 26.8002 4.94036 28.5607 4.94036C32.1478 4.94036 35.0557 7.86934 35.0557 11.4824C35.0557 15.0955 32.1478 18.0245 28.5607 18.0245C24.9758 18.0245 22.0693 15.0993 22.0656 11.4894H22.0571C22.0571 11.4871 22.0571 11.4847 22.0571 11.4824C22.0571 10.2687 21.0884 9.28479 19.8935 9.28479H13.4027C12.2077 9.28479 11.2391 10.2687 11.2391 11.4824C11.2391 12.6962 12.2077 13.6801 13.4027 13.6801H17.3545C16.4587 16.2121 14.0588 18.0245 11.239 18.0245C7.65418 18.0245 4.74813 15.0955 4.74813 11.4824C4.74813 7.86934 7.65418 4.94036 11.239 4.94036Z" fill="white"/>
</svg>
