<svg width="16" height="15" viewBox="0 0 16 15" fill="none" xmlns="http://www.w3.org/2000/svg">
<path d="M10.3573 2.48364H5.65404C4.02767 2.48364 2.70898 3.80232 2.70898 5.4287V9.58254C2.70898 11.2089 4.02767 12.5276 5.65404 12.5276H10.3683C11.9947 12.5276 13.3134 11.2089 13.3134 9.58254V5.4287C13.3134 3.80232 11.9837 2.48364 10.3573 2.48364ZM8.00569 10.8792C6.14855 10.8792 4.63206 9.36276 4.63206 7.50562C4.63206 5.64848 6.14855 4.13199 8.00569 4.13199C9.86283 4.13199 11.3793 5.64848 11.3793 7.50562C11.3793 9.36276 9.86283 10.8792 8.00569 10.8792ZM11.3244 4.93419C10.9398 4.93419 10.6211 4.61551 10.6211 4.2309C10.6211 3.84628 10.9398 3.5276 11.3244 3.5276C11.709 3.5276 12.0277 3.84628 12.0277 4.2309C12.0277 4.6265 11.72 4.93419 11.3244 4.93419Z" fill="white"/>
<path d="M8.00599 4.97827C6.61038 4.97827 5.47852 6.11014 5.47852 7.50574C5.47852 8.90135 6.61038 10.0332 8.00599 10.0332C9.40159 10.0332 10.5335 8.90135 10.5335 7.50574C10.5335 6.11014 9.40159 4.97827 8.00599 4.97827Z" fill="white"/>
<path d="M12.9396 0.00012207H3.06044C1.64286 0.00012207 0.5 1.15397 0.5 2.56056V12.4397C0.5 13.8573 1.64286 15.0001 3.06044 15.0001H12.9396C14.3571 15.0001 15.5 13.8573 15.5 12.4397V2.56056C15.511 1.15397 14.3571 0.00012207 12.9396 0.00012207ZM14.1484 9.58254C14.1484 11.6705 12.4451 13.3737 10.3571 13.3737H5.65385C3.56593 13.3737 1.86264 11.6705 1.86264 9.58254V5.42869C1.86264 3.34078 3.56593 1.63748 5.65385 1.63748H10.3681C12.456 1.63748 14.1593 3.34078 14.1593 5.42869V9.58254H14.1484Z" fill="white"/>
</svg>
