<?xml version="1.0" encoding="UTF-8" standalone="no"?>
<!DOCTYPE svg PUBLIC "-//W3C//DTD SVG 1.1//EN" "http://www.w3.org/Graphics/SVG/1.1/DTD/svg11.dtd">
<svg  width="100%" height="100%" viewBox="0 0 464 225" version="1.1" xmlns="http://www.w3.org/2000/svg" xmlns:xlink="http://www.w3.org/1999/xlink" xml:space="preserve" style="fill-rule:evenodd;clip-rule:evenodd;stroke-linejoin:round;stroke-miterlimit:1.41421;">
    <g transform="matrix(1.20978,0,0,1.20978,39.205,194.235)">
        <path d="M4.505,3.819L0,3.819L0.362,1.928L11.448,1.928L11.083,3.818L6.578,3.818L3.6,19.875L1.552,19.875L4.505,3.82M19.185,9.566C19.185,8.582 18.513,8.023 17.527,8.023C15.745,8.023 14.321,9.888 13.749,12.125C16.699,12.151 19.185,11.618 19.185,9.595L19.185,9.566L19.185,9.566ZM19.549,18.753C18.619,19.286 17.271,19.713 15.768,19.713C12.661,19.713 11.391,17.45 11.391,14.707C11.391,10.954 13.931,6.319 17.815,6.319C20.042,6.319 21.155,7.786 21.155,9.513C21.155,12.816 17.761,13.829 13.489,13.773C13.413,14.28 13.439,15.559 13.697,16.276C14.136,17.424 15.019,17.98 16.235,17.98C17.556,17.98 18.541,17.556 19.265,17.157L19.549,18.753ZM31.769,19.046C31.171,19.339 30.06,19.713 28.608,19.713C25.603,19.713 24.205,17.529 24.205,14.839C24.205,10.635 27.081,6.319 31.458,6.319C32.444,6.319 33.321,6.586 33.657,6.799L33.09,8.529C32.541,8.262 31.938,8.125 31.327,8.131C28.247,8.131 26.355,11.591 26.355,14.601C26.355,16.625 27.261,17.954 29.129,17.954C30.191,17.954 31.019,17.634 31.615,17.371L31.769,19.046M37.02,19.473L38.677,10.526C38.914,9.219 39.113,7.905 39.272,6.586L41.109,6.586L40.824,8.954L40.876,8.954C41.963,7.227 43.493,6.319 45.15,6.319C46.65,6.319 47.998,7.306 47.998,9.595C47.998,10.233 47.895,10.98 47.764,11.697L46.34,19.473L44.293,19.473L45.693,11.753C45.796,11.217 45.873,10.661 45.873,10.073C45.873,8.931 45.435,8.103 44.165,8.103C42.741,8.103 40.799,9.967 40.28,12.921L39.09,19.473L37.02,19.473M55.891,18.036C58.355,18.036 59.986,14.042 59.986,11.299C59.986,9.835 59.442,8.023 57.549,8.023C55.014,8.023 53.383,11.776 53.383,14.602C53.383,16.516 54.211,18.036 55.869,18.036L55.891,18.036ZM55.61,19.74C52.708,19.74 51.258,17.45 51.258,14.733C51.258,10.713 53.821,6.319 57.808,6.319C60.918,6.319 62.108,8.901 62.108,11.326C62.108,15.079 59.728,19.74 55.635,19.74L55.61,19.74L55.61,19.74ZM65.497,19.236L68.962,0.464L71.035,0.464L67.567,19.236L65.497,19.236M78.676,18.036C81.136,18.036 82.768,14.042 82.768,11.299C82.768,9.835 82.224,8.023 80.333,8.023C77.796,8.023 76.164,11.776 76.164,14.602C76.164,16.516 76.993,18.036 78.65,18.036L78.676,18.036ZM78.391,19.74C75.492,19.74 74.04,17.45 74.04,14.733C74.04,10.713 76.603,6.319 80.592,6.319C83.702,6.319 84.892,8.901 84.892,11.326C84.892,15.079 82.512,19.74 78.417,19.74L78.391,19.74L78.391,19.74ZM97.784,8.398C97.419,8.21 96.77,8.023 95.995,8.023C93.042,8.023 91.1,11.753 91.075,14.786C91.049,16.25 91.462,17.796 93.119,17.796C94.831,17.796 96.462,15.372 96.901,13.108L97.784,8.398L97.784,8.398ZM88.874,22.454C89.545,22.907 90.687,23.226 91.798,23.226C93.845,23.226 95.244,22.029 95.918,18.888L96.331,16.944L96.254,16.944C95.167,18.753 93.797,19.5 92.319,19.5C90.118,19.5 88.927,17.582 88.927,15.266C88.927,11.033 91.695,6.319 96.434,6.319C97.73,6.319 99.154,6.694 100.036,7.119L98.068,17.954C97.576,20.644 96.901,22.483 95.711,23.546C94.597,24.611 93.071,24.956 91.67,24.956C90.297,24.956 89.004,24.611 88.278,24.131L88.873,22.454L88.874,22.454ZM109.3,4.724C108.574,4.724 108.135,4.164 108.16,3.392C108.186,2.566 108.781,1.928 109.533,1.928C110.285,1.928 110.752,2.513 110.723,3.283C110.698,4.135 110.103,4.723 109.325,4.723L109.3,4.723L109.3,4.724ZM105.364,19.766L107.744,6.878L109.818,6.878L107.438,19.766L105.364,19.766ZM151.163,8.345C150.799,8.026 150.181,7.785 149.401,7.785C146.553,7.785 144.506,11.569 144.506,14.736C144.506,16.306 144.973,17.743 146.579,17.743C148.005,17.743 149.765,16.039 150.283,13.243L151.163,8.345L151.163,8.345ZM154.686,0.464L151.992,15.029C151.759,16.387 151.525,17.986 151.448,19.236L149.586,19.236L149.868,16.865L149.816,16.865C148.834,18.515 147.382,19.502 145.75,19.502C143.6,19.502 142.384,17.612 142.384,15.082C142.384,10.529 145.363,6.082 149.586,6.082C150.283,6.082 151.058,6.269 151.526,6.536L152.64,0.464L154.686,0.464ZM165.479,7.891C165.194,7.786 164.807,7.731 164.211,7.731C161.101,7.731 158.77,11.566 158.747,14.947C158.721,16.437 159.16,17.687 160.584,17.687C162.215,17.687 164.106,15.24 164.701,12.072L165.479,7.892L165.479,7.891ZM164.029,19.181C164.029,18.408 164.157,17.341 164.289,16.118L164.234,16.118C162.916,18.648 161.364,19.447 159.86,19.447C157.864,19.447 156.622,17.796 156.622,15.372C156.622,11.059 159.473,6.026 164.755,6.026C165.843,6.026 167.034,6.24 167.808,6.506L166.464,13.401C166.074,15.506 165.892,17.743 165.946,19.181L164.029,19.181L164.029,19.181ZM123.618,8.184C123.333,8.079 122.946,8.024 122.351,8.024C119.241,8.024 116.909,11.858 116.886,15.24C116.86,16.73 117.299,17.98 118.723,17.98C120.355,17.98 122.245,15.533 122.841,12.365L123.618,8.185L123.618,8.184ZM122.168,19.474C122.168,18.7 122.297,17.634 122.428,16.411L122.374,16.411C121.055,18.941 119.504,19.74 117.999,19.74C116.003,19.74 114.762,18.088 114.762,15.664C114.762,11.352 117.612,6.319 122.895,6.319C123.982,6.319 125.173,6.533 125.947,6.799L124.603,13.694C124.213,15.799 124.031,18.036 124.085,19.474L122.168,19.474L122.168,19.474ZM190.487,1.928L187.172,19.874L185.1,19.874L188.415,1.928L190.488,1.928M193.642,19.473L195.3,10.526C195.537,9.219 195.736,7.905 195.895,6.586L197.732,6.586L197.45,8.954L197.498,8.954C198.586,7.227 200.115,6.319 201.772,6.319C203.273,6.319 204.62,7.306 204.62,9.595C204.62,10.233 204.518,10.98 204.387,11.697L202.963,19.473L200.915,19.473L202.316,11.753C202.422,11.217 202.496,10.661 202.496,10.073C202.496,8.931 202.057,8.103 200.787,8.103C199.363,8.103 197.421,9.967 196.903,12.921L195.713,19.473L193.643,19.473M209.305,19.502L211.375,8.266L209.745,8.266L210.056,6.615L211.714,6.615L211.842,5.898C212.127,4.22 212.725,2.622 213.784,1.582C214.583,0.869 215.615,0.472 216.686,0.464C217.463,0.464 218.007,0.624 218.263,0.786L217.825,2.461C217.515,2.329 217.127,2.25 216.66,2.25C215.028,2.25 214.2,3.98 213.86,6.003L213.758,6.615L216.427,6.615L216.091,8.266L213.448,8.266L211.352,19.502L209.305,19.502M223.907,18.036C226.367,18.036 228,14.042 228,11.299C228,9.835 227.456,8.023 225.565,8.023C223.027,8.023 221.395,11.776 221.395,14.602C221.395,16.516 222.225,18.036 223.882,18.036L223.907,18.036ZM223.623,19.74C220.721,19.74 219.271,17.45 219.271,14.733C219.271,10.713 221.834,6.319 225.821,6.319C228.931,6.319 230.121,8.901 230.121,11.326C230.121,15.079 227.741,19.74 223.648,19.74L223.623,19.74ZM233.51,19.473L235.062,11.059C235.372,9.382 235.552,7.704 235.66,6.586L237.468,6.586C237.391,7.411 237.318,8.263 237.186,9.276L237.237,9.276C238.067,7.572 239.311,6.319 240.863,6.319C241.042,6.319 241.25,6.346 241.406,6.346L240.994,8.476C240.888,8.451 240.706,8.451 240.526,8.451C238.713,8.451 237.161,10.793 236.668,13.457L235.552,19.473L233.51,19.473M244.9,19.473L246.53,10.526C246.771,9.22 246.97,7.905 247.125,6.586L248.939,6.586L248.654,8.901L248.708,8.901C249.818,7.171 251.268,6.319 252.772,6.319C254.509,6.319 255.337,7.517 255.44,9.009C256.502,7.25 257.977,6.346 259.634,6.319C261.084,6.319 262.405,7.359 262.405,9.461C262.405,10.072 262.303,10.924 262.172,11.697L260.748,19.473L258.726,19.473L260.124,11.806C260.232,11.246 260.309,10.635 260.309,10.049C260.309,8.849 259.868,8.102 258.678,8.102C257.254,8.102 255.568,9.914 255.05,12.684L253.808,19.474L251.815,19.474L253.239,11.724C253.367,11.112 253.418,10.579 253.418,10.02C253.418,9.036 253.133,8.102 251.815,8.102C250.391,8.102 248.603,10.154 248.138,12.789L246.92,19.473L244.9,19.473M273.69,8.184C273.406,8.079 273.019,8.024 272.423,8.024C269.317,8.024 266.981,11.858 266.959,15.24C266.933,16.73 267.372,17.98 268.795,17.98C270.427,17.98 272.318,15.533 272.913,12.365L273.691,8.185L273.69,8.184ZM272.241,19.474C272.241,18.7 272.369,17.634 272.501,16.411L272.446,16.411C271.125,18.941 269.576,19.74 268.069,19.74C266.076,19.74 264.834,18.088 264.834,15.664C264.834,11.352 267.682,6.319 272.967,6.319C274.055,6.319 275.245,6.533 276.02,6.799L274.676,13.694C274.289,15.799 274.103,18.036 274.158,19.474L272.241,19.474ZM288.063,18.993C287.542,19.259 286.611,19.631 285.653,19.687L284.851,20.802C285.679,21.016 286.249,21.684 286.249,22.562C286.249,23.999 284.928,24.799 283.581,24.799C282.88,24.799 282.182,24.585 281.872,24.319L282.339,23.226C282.726,23.466 283.216,23.598 283.66,23.598C284.255,23.598 284.77,23.279 284.77,22.668C284.77,22.055 284.15,21.684 283.088,21.575L284.358,19.687C281.638,19.444 280.497,17.237 280.497,14.839C280.497,10.661 283.373,6.319 287.75,6.319C288.735,6.319 289.612,6.612 289.925,6.799L289.355,8.529C288.808,8.259 288.204,8.122 287.593,8.131C284.537,8.131 282.647,11.591 282.647,14.601C282.647,16.598 283.529,17.954 285.392,17.954C286.482,17.954 287.311,17.634 287.906,17.371L288.063,18.993M297.69,4.214C297.82,2.747 298.467,1.629 299.58,1.629C300.204,1.629 300.566,1.895 301.059,2.215C301.418,2.428 301.757,2.668 302.067,2.668C302.483,2.668 302.691,2.428 302.819,1.576L303.984,1.576C303.802,3.119 303.258,4.053 302.067,4.053C301.526,4.053 301.005,3.813 300.617,3.52C300.278,3.28 299.942,3.04 299.607,3.04C299.165,3.04 298.985,3.494 298.883,4.214L297.689,4.214L297.69,4.214ZM302.17,8.02C301.888,7.915 301.497,7.86 300.902,7.86C297.792,7.86 295.462,11.694 295.436,15.076C295.41,16.566 295.849,17.816 297.302,17.816C298.931,17.816 300.8,15.369 301.395,12.201L302.17,8.021L302.17,8.02ZM300.72,19.31C300.72,18.536 300.848,17.47 300.979,16.247L300.928,16.247C299.606,18.777 298.054,19.576 296.55,19.576C294.553,19.576 293.311,17.924 293.311,15.5C293.311,11.188 296.162,6.155 301.446,6.155C302.534,6.155 303.725,6.369 304.502,6.635L303.155,13.53C302.765,15.635 302.585,17.872 302.637,19.31L300.72,19.31L300.72,19.31ZM312.183,18.036C314.646,18.036 316.278,14.042 316.278,11.299C316.278,9.835 315.734,8.023 313.843,8.023C311.306,8.023 309.673,11.776 309.673,14.602C309.673,16.516 310.503,18.036 312.16,18.036L312.183,18.036ZM311.901,19.74C308.999,19.74 307.549,17.45 307.549,14.733C307.549,10.713 310.112,6.319 314.099,6.319C317.209,6.319 318.399,8.901 318.399,11.326C318.399,15.079 316.019,19.74 311.926,19.74L311.901,19.74L311.901,19.74Z" style="fill:#f86e32;"/>
    </g>
    <g transform="matrix(1,0,0,1,0.575518,0.718386)">
        <path d="M285.318,99.034L285.295,99.494L285.135,100.554C285.098,100.76 285.065,100.983 285.029,101.183L280.42,127.928C279.567,133.859 274.477,138.288 268.438,138.288L260.458,138.288C253.763,138.288 248.306,132.871 248.306,126.221C248.306,126.107 248.32,126.002 248.32,125.884L248.168,125.884L252.998,97.755C254.231,90.558 258.711,86.443 265.292,86.443L274.812,86.443L274.959,86.629C280.897,87.494 285.346,92.534 285.346,98.502C285.346,98.688 285.332,98.857 285.296,99.016L285.318,99.034ZM301.405,133.318L306.207,103.131C306.537,101.702 306.743,100.341 306.862,99.016L306.885,98.784C306.94,97.964 307,97.218 307,96.462C307,80.247 293.696,67.041 277.353,67.041L263.453,67.041C263.246,67.036 263.077,67.036 262.912,67.027C262.728,67.018 262.54,67 262.334,67C247.535,67 234.801,77.98 232.741,92.552L232.709,92.862L232.333,93.212L227.083,125.474L227.188,125.565L227.147,126.079C227.053,127.008 227.004,127.941 227,128.875C227,144.94 240.175,158 256.345,158L272.414,158C286.602,158 298.736,147.944 301.259,134.082L301.405,133.318L301.405,133.318ZM154.872,94.964C154.594,97.77 154.548,98.246 153.999,98.336C153.465,99.211 152.495,100.168 150.735,100.566C147.837,101.242 121.575,108.108 121.269,108.19C117.671,109.268 116.478,110.986 116.478,110.986L119.344,95.626C119.344,95.581 120.409,86.747 132.299,86.747L147.531,86.747C149.826,86.747 151.654,87.473 152.971,88.9C154.639,90.713 155.019,93.301 154.872,94.964ZM175,89.802C175,77.234 164.669,67 151.97,67L129.456,67L129.456,67.01L128.139,67.086C115.07,67.929 103.939,77.366 101.096,90.006L101.041,90.264C98.993,103.435 95.203,127.946 95.111,128.635C94.435,135.497 96.849,142.341 101.918,147.888C107.71,154.211 116.281,158 124.848,158L146.201,158L146.191,157.869L147.394,157.927C147.753,157.976 148.115,158.001 148.477,158C157.291,158 164.673,151.74 166.063,143.102L168.198,129.469L155.343,129.469C155.229,129.469 155.138,129.442 155.06,129.433L155.046,129.433C151.385,129.433 148.112,131.459 146.946,134.94C146.384,136.934 144.496,138.375 142.375,138.375L124.03,138.33C118.814,138.012 114.544,134.595 114.992,130.575C115.312,127.778 117.118,126.7 122.21,125.29L158.575,115.668C158.695,115.641 171.955,111.675 173.258,101.727C173.437,100.344 173.528,99.832 173.715,98.803C173.857,98.042 174.013,97.018 174.346,95.168C174.771,93.292 175,91.52 175,89.802L175,89.802ZM442.862,94.964C442.579,97.77 442.547,98.246 441.998,98.336C441.472,99.211 440.503,100.168 438.738,100.566C435.845,101.242 409.572,108.108 409.279,108.19C405.672,109.268 404.489,110.986 404.489,110.986L407.341,95.626C407.341,95.581 408.411,86.747 420.301,86.747L435.543,86.747C437.833,86.747 439.658,87.473 440.979,88.9C442.624,90.713 443.031,93.301 442.862,94.964L442.862,94.964ZM463,89.802C463,77.234 452.668,67 439.982,67L417.45,67L417.45,67.01L416.151,67.086C403.081,67.929 391.945,77.366 389.088,90.006L389.033,90.264C386.989,103.435 383.2,127.946 383.113,128.635C382.436,135.497 384.85,142.341 389.915,147.888C395.711,154.211 404.283,158 412.85,158L434.19,158L434.19,157.869L435.41,157.927C435.78,157.982 436.156,158 436.48,158C445.29,158 452.682,151.74 454.058,143.102L456.198,129.469L443.356,129.469C443.242,129.469 443.15,129.442 443.054,129.433L443.036,129.433C439.393,129.432 436.137,131.778 434.986,135.234C434.432,137.242 432.53,138.656 430.391,138.656L412.068,138.624C406.848,138.312 402.555,134.595 402.993,130.574C403.318,127.778 405.115,126.7 410.217,125.29L446.583,115.668C446.703,115.641 459.96,111.675 461.258,101.727C461.441,100.344 461.542,99.832 461.715,98.803C461.853,98.042 462.026,97.018 462.342,95.168C462.767,93.292 463,91.52 463,89.802L463,89.802ZM380.187,78.346L382,67L366.72,67C354.375,67.53 344.963,85.853 344.963,85.853L347.626,71.243L325.176,71.243L311,158L333.2,158L341.712,107.667C344.415,96.488 354.343,88.737 365.856,88.737C366.573,88.737 367.331,88.769 368.167,88.85C374.072,88.85 379.141,84.572 380.114,78.681L380.187,78.346M59.079,129.71C59.069,129.748 59.063,129.786 59.061,129.825L59.056,129.907C58.048,134.652 53.809,138.093 48.982,138.093L34.198,138.093C28.522,138.093 23.895,133.463 23.895,127.762C23.895,127.501 30.812,77.076 30.812,77.076C30.812,77.076 33.267,80.228 37.328,82.113L58.153,91.749L58.112,91.804C61.233,93.66 63.15,97.035 63.144,100.666C63.144,100.767 63.204,102.858 59.079,129.711L59.079,129.71ZM86.615,101.5C89.59,84.02 74.346,76.736 73.694,76.44C72.699,76.028 48.265,66.274 41.111,62.243C33.719,58.07 35.544,48.809 35.717,47.981L38.4,27.791C39.45,19.902 38.437,14.128 35.389,10.633C32.61,7.463 28.869,7 26.889,7L19.169,7L0.492,122.65C-1.488,134.803 2.878,142.98 6.893,147.705C12.268,154.042 20.422,157.986 28.147,157.986L29,157.986C32.294,157.986 44.07,157.986 49.843,158L53.06,158C67.98,158 80.514,146.214 81.614,131.175C82.339,126.815 84.183,115.76 86.614,101.499L86.615,101.5ZM232.826,15.325L236,0.031L222.048,0.031C221.884,0.031 221.761,0.022 221.62,0.004C221.41,0.004 221.169,-0.006 220.937,0.004C220.837,0.022 220.727,0.031 220.623,0.031L220.099,0.05C209.035,0.517 199.833,8.981 198.443,19.967L198.356,20.321L172,181L174.9,181C186.262,181 195.779,172.855 197.523,161.643L200.19,148L208.054,97.704C208.4,93.295 212.061,89.846 216.51,89.846L219.447,89.846L223.026,66.42L213.136,66.42L219.242,29.517C219.483,26.291 220.372,22.682 224.428,22.072L224.57,21.904L224.906,21.868C229.478,21.353 232.233,21.021 232.811,15.424L232.825,15.324" style="fill:#f86e32;"/>
    </g>
</svg>
