<svg width="13" height="23" viewBox="0 0 13 23" fill="none" xmlns="http://www.w3.org/2000/svg">
<path d="M12.392 15.68C12.392 16.464 12.184 17.184 11.768 17.84C11.368 18.48 10.752 19.008 9.92 19.424C9.088 19.84 8.056 20.072 6.824 20.12V22.88H5.936V20.12C4.768 20.072 3.664 19.84 2.624 19.424C1.6 19.008 0.8 18.48 0.224 17.84L0.776 16.928C1.336 17.504 2.08 17.992 3.008 18.392C3.936 18.776 4.912 18.992 5.936 19.04V12.08C4.832 11.808 3.92 11.52 3.2 11.216C2.48 10.912 1.88 10.464 1.4 9.872C0.92 9.28 0.68 8.504 0.68 7.544C0.68 6.344 1.12 5.328 2 4.496C2.896 3.664 4.208 3.2 5.936 3.104V0.319999H6.824V3.08C7.736 3.112 8.616 3.264 9.464 3.536C10.328 3.792 11.072 4.144 11.696 4.592L11.24 5.576C10.584 5.128 9.872 4.792 9.104 4.568C8.336 4.328 7.576 4.192 6.824 4.16V11.12C8.04 11.424 9.016 11.72 9.752 12.008C10.488 12.296 11.112 12.736 11.624 13.328C12.136 13.904 12.392 14.688 12.392 15.68ZM1.904 7.52C1.904 8.496 2.248 9.224 2.936 9.704C3.624 10.168 4.624 10.568 5.936 10.904V4.184C4.608 4.28 3.6 4.64 2.912 5.264C2.24 5.872 1.904 6.624 1.904 7.52ZM6.824 19.04C8.264 18.976 9.344 18.64 10.064 18.032C10.8 17.424 11.168 16.664 11.168 15.752C11.168 15.048 10.976 14.48 10.592 14.048C10.208 13.6 9.72 13.256 9.128 13.016C8.536 12.776 7.768 12.536 6.824 12.296V19.04Z" fill="#660099"/>
</svg>
