<svg width="24" height="24" viewBox="0 0 24 24" fill="none" xmlns="http://www.w3.org/2000/svg">
<path d="M16.6185 0.96H7.38183C6.46944 0.96 5.7266 1.70283 5.7266 2.61522V21.3852C5.7266 22.2979 6.46943 23.0408 7.38183 23.0408H16.6181C17.5309 23.0408 18.2737 22.2979 18.2737 21.3856V2.61522C18.2737 1.70283 17.5309 0.96 16.6185 0.96ZM6.53996 3.97344H17.4604V17.8273H6.53996V3.97344ZM7.38183 1.77336H16.6181C17.0826 1.77336 17.4604 2.15111 17.4604 2.61522V3.16008H6.53996V2.61522C6.53996 2.1511 6.9177 1.77336 7.38183 1.77336ZM16.6185 22.2274H7.38183C6.9177 22.2274 6.53996 21.8497 6.53996 21.3856V18.6406H17.4604V21.3856C17.4604 21.8497 17.0826 22.2274 16.6185 22.2274Z" fill="#660099" stroke="#660099" stroke-width="0.08"/>
<path d="M11.9999 18.9275C11.1689 18.9275 10.4932 19.6033 10.4932 20.4342C10.4932 21.2652 11.1689 21.941 11.9999 21.941C12.8309 21.941 13.5066 21.2652 13.5066 20.4342C13.5066 19.6033 12.8309 18.9275 11.9999 18.9275ZM11.9999 21.1276C11.6176 21.1276 11.3066 20.8166 11.3066 20.4342C11.3066 20.0519 11.6176 19.7409 11.9999 19.7409C12.3823 19.7409 12.6933 20.0519 12.6933 20.4342C12.6933 20.8166 12.3823 21.1276 11.9999 21.1276Z" fill="#660099" stroke="#660099" stroke-width="0.08"/>
<path d="M10.5332 2.87333H11.9999C12.2248 2.87333 12.4066 2.69152 12.4066 2.46666C12.4066 2.24179 12.2248 2.05998 11.9999 2.05998H10.5332C10.3083 2.05998 10.1265 2.24179 10.1265 2.46666C10.1265 2.69152 10.3083 2.87333 10.5332 2.87333Z" fill="#660099" stroke="#660099" stroke-width="0.08"/>
<path d="M13.0996 2.87333H13.4663C13.6911 2.87333 13.8729 2.69152 13.8729 2.46666C13.8729 2.24179 13.6911 2.05998 13.4663 2.05998H13.0996C12.8747 2.05998 12.6929 2.24179 12.6929 2.46666C12.6929 2.69152 12.8747 2.87333 13.0996 2.87333Z" fill="#660099" stroke="#660099" stroke-width="0.08"/>
<path d="M21.7861 2.64699C21.6271 2.488 21.3701 2.488 21.2111 2.64699C21.0521 2.80599 21.0521 3.06305 21.2111 3.22205C22.5654 4.57634 22.5654 6.78006 21.2111 8.13472C21.0521 8.29371 21.0521 8.55078 21.2111 8.70977C21.2904 8.78906 21.3945 8.82893 21.4986 8.82893C21.6027 8.82893 21.7068 8.78906 21.7861 8.70978C23.4577 7.0386 23.4577 4.31854 21.7861 2.64699Z" fill="#660099" stroke="#660099" stroke-width="0.08"/>
<path d="M20.2422 3.48171C20.0832 3.32272 19.8261 3.32272 19.6671 3.48171M20.2422 3.48171L20.2139 3.50999M20.2422 3.48171C20.2422 3.4817 20.2422 3.4817 20.2422 3.48169L20.2139 3.50999M20.2422 3.48171C20.8423 4.08107 21.1721 4.87999 21.1721 5.72951C21.1721 6.57905 20.8419 7.3776 20.2422 7.97695M19.6671 3.48171L20.2139 3.50999M19.6671 3.48171C19.5081 3.6407 19.5081 3.89777 19.6671 4.05676C20.1132 4.50282 20.3587 5.09692 20.3587 5.72951C20.3587 6.36209 20.1132 6.95583 19.6671 7.40188C19.5081 7.56087 19.5081 7.81794 19.6671 7.97694C19.7464 8.05622 19.8506 8.09609 19.9547 8.09609C20.0587 8.09609 20.1629 8.05623 20.2422 7.97695M19.6671 3.48171L20.2139 7.94865M20.2139 3.50999C20.8065 4.10182 21.1321 4.89054 21.1321 5.72951C21.1321 6.56847 20.8061 7.35683 20.2139 7.94865M20.2422 7.97695C20.2422 7.97694 20.2422 7.97694 20.2422 7.97694L20.2139 7.94865M20.2422 7.97695L20.2139 7.94865" fill="#660099" stroke="#660099" stroke-width="0.08"/>
<path d="M2.78871 8.13472L2.78871 8.13472C1.43406 6.78043 1.43405 4.57671 2.78871 3.22205C2.94771 3.06305 2.94771 2.80599 2.78871 2.64699C2.62972 2.488 2.37265 2.488 2.21366 2.64699C0.542113 4.31854 0.542113 7.03823 2.21366 8.70977C2.29295 8.78906 2.39712 8.82893 2.50119 8.82893C2.60526 8.82893 2.70943 8.78906 2.78871 8.70977C2.94771 8.55078 2.94771 8.29371 2.78871 8.13472Z" fill="#660099" stroke="#660099" stroke-width="0.08"/>
<path d="M4.33261 3.38051L4.33265 3.38055C4.4912 3.53951 4.49126 3.79692 4.33261 3.95557L4.3326 3.95558C3.8862 4.40162 3.64104 4.99535 3.64104 5.62794C3.64104 6.26053 3.88656 6.85463 4.33261 7.30069C4.4916 7.45968 4.4916 7.71675 4.33261 7.87574C4.25332 7.95503 4.14915 7.99489 4.04508 7.99489C3.94101 7.99489 3.83685 7.95503 3.75756 7.87574C3.15785 7.27603 2.82768 6.47749 2.82768 5.62794C2.82768 4.77841 3.15784 3.97986 3.75756 3.38051L4.33261 3.38051ZM4.33261 3.38051C4.17362 3.22152 3.91656 3.22152 3.75757 3.38051L4.33261 3.38051Z" fill="#660099" stroke="#660099" stroke-width="0.08"/>
</svg>
