<svg width="20" height="25" viewBox="0 0 20 25" fill="none" xmlns="http://www.w3.org/2000/svg">
<path d="M13.3655 3.41469C13.1283 1.7523 11.6813 0.498535 9.99983 0.498535C8.91844 0.498535 7.89143 1.02036 7.25289 1.89492C7.12246 2.07327 7.16148 2.32346 7.33984 2.45389C7.51761 2.58385 7.76838 2.54529 7.89858 2.3667C8.38736 1.69793 9.17273 1.29856 9.99971 1.29856C11.2857 1.29856 12.392 2.2569 12.5735 3.52754C12.602 3.72711 12.7733 3.87113 12.9691 3.87113C12.9877 3.87113 13.0069 3.86972 13.026 3.86715C13.2447 3.83586 13.3967 3.63324 13.3655 3.41469Z" fill="#660099"/>
<path d="M19.1425 7.89242L17.9425 5.89242C17.8703 5.77183 17.7401 5.69824 17.5995 5.69824H16.4496C16.2288 5.69824 16.0496 5.87742 16.0496 6.0982C16.0496 6.31897 16.2288 6.49815 16.4496 6.49815H17.3731L18.0931 7.69813H1.90615L2.62614 6.49815H3.04976C3.27054 6.49815 3.44972 6.31897 3.44972 6.0982C3.44972 5.87742 3.27054 5.69824 3.04976 5.69824H2.39974C2.25911 5.69824 2.12892 5.77183 2.05674 5.89242L0.856757 7.89242C0.782579 8.01617 0.780821 8.17003 0.851718 8.29542C0.922616 8.42081 1.0555 8.49839 1.19976 8.49839H18.7995C18.9437 8.49839 19.0765 8.42081 19.1475 8.29542C19.2185 8.17003 19.2167 8.01593 19.1425 7.89242Z" fill="#660099"/>
<path d="M17.1489 4.20433C17.0929 4.11398 17.0034 4.04988 16.9001 4.02574L11.4473 2.75041C11.3441 2.72615 11.2353 2.7442 11.1451 2.79998C11.0551 2.85599 10.9909 2.94541 10.9668 3.04876L10.5556 4.80654C10.5052 5.02158 10.6388 5.23673 10.8539 5.28689C11.0689 5.33728 11.2843 5.20369 11.3345 4.98853L11.6546 3.62039L16.3283 4.71362L15.5939 7.8536C15.5435 8.06863 15.6771 8.28378 15.8923 8.33394C15.9231 8.34109 15.9537 8.34449 15.9839 8.34449C16.1656 8.34449 16.33 8.22004 16.3727 8.0357L17.1983 4.50632C17.2227 4.40308 17.2049 4.29433 17.1489 4.20433Z" fill="#660099"/>
<path d="M10.2111 5.14981L9.84668 2.06725C9.83426 1.9619 9.78047 1.86569 9.69704 1.80006C9.6136 1.73444 9.50825 1.70444 9.40243 1.71686L2.71232 2.50763C2.49307 2.53364 2.33627 2.73239 2.36217 2.95188L2.96978 8.09315C2.99392 8.2967 3.16653 8.44635 3.36657 8.44635C3.38215 8.44635 3.39821 8.44529 3.41415 8.44353C3.63328 8.41752 3.79008 8.21877 3.7643 7.99928L3.20356 3.25492L9.09928 2.55813L9.41661 5.24344C9.44263 5.46281 9.64044 5.61866 9.86086 5.59382C10.0801 5.56804 10.2369 5.36918 10.2111 5.14981Z" fill="#660099"/>
<path d="M13.3748 7.94636L12.5808 4.64478C12.556 4.54177 12.4912 4.45259 12.4008 4.39716C12.3105 4.3422 12.2021 4.32498 12.0984 4.34959L5.65472 5.89925C5.43992 5.95081 5.30773 6.1669 5.35929 6.3817L5.75608 8.0319C5.80764 8.24694 6.02373 8.37924 6.23842 8.32733C6.45322 8.27576 6.5854 8.05967 6.53384 7.84487L6.23045 6.58349L11.8964 5.22109L12.5968 8.13362C12.6407 8.31701 12.8048 8.44006 12.9854 8.44006C13.0164 8.44006 13.0478 8.43643 13.0793 8.42881C13.2941 8.37713 13.4263 8.16116 13.3748 7.94636Z" fill="#660099"/>
<path d="M19.1995 8.07805C19.1885 7.86548 19.0129 7.69861 18.7999 7.69861H1.20015C0.98711 7.69861 0.811567 7.86536 0.800551 8.07805L0.000526876 23.6778C-0.00509802 23.7872 0.0345107 23.8943 0.109978 23.9738C0.185563 24.0531 0.290326 24.0982 0.400012 24.0982H19.5997C19.7092 24.0982 19.8141 24.0532 19.89 23.9738C19.9654 23.8943 20.005 23.7873 19.9995 23.6778L19.1995 8.07805ZM0.820942 23.2982L1.57995 8.49852H18.4196L19.1786 23.2982H0.820942Z" fill="#660099"/>
<path d="M12.9998 9.29834C12.338 9.29834 11.7998 9.83657 11.7998 10.4983C11.7998 11.1601 12.338 11.6983 12.9998 11.6983C13.6615 11.6983 14.1998 11.1601 14.1998 10.4983C14.1998 9.83657 13.6615 9.29834 12.9998 9.29834ZM12.9998 10.8984C12.7791 10.8984 12.5998 10.719 12.5998 10.4984C12.5998 10.2779 12.7792 10.0985 12.9998 10.0985C13.2203 10.0985 13.3997 10.2779 13.3997 10.4984C13.3997 10.719 13.2203 10.8984 12.9998 10.8984Z" fill="#660099"/>
<path d="M6.99978 9.29834C6.33804 9.29834 5.7998 9.83657 5.7998 10.4983C5.7998 11.1601 6.33804 11.6983 6.99978 11.6983C7.66153 11.6983 8.19976 11.1601 8.19976 10.4983C8.19976 9.83657 7.66153 9.29834 6.99978 9.29834ZM6.99978 10.8984C6.77924 10.8984 6.59983 10.719 6.59983 10.4984C6.59983 10.2779 6.77924 10.0985 6.99978 10.0985C7.22033 10.0985 7.39974 10.2779 7.39974 10.4984C7.39974 10.719 7.22033 10.8984 6.99978 10.8984Z" fill="#660099"/>
<path d="M12.9995 10.4983H12.9686C12.7479 10.4983 12.5687 10.6775 12.5687 10.8982C12.5687 10.9529 12.5795 11.005 12.5995 11.0525V13.0982C12.5995 14.5317 11.4332 15.6982 9.99951 15.6982C8.56586 15.6982 7.39952 14.5318 7.39952 13.0982V10.8984C7.39952 10.6776 7.22034 10.4984 6.99956 10.4984C6.77879 10.4984 6.59961 10.6776 6.59961 10.8984V13.0983C6.59961 14.973 8.12478 16.4982 9.99951 16.4982C11.8742 16.4982 13.3994 14.973 13.3994 13.0983V10.8984C13.3994 10.6776 13.2202 10.4983 12.9995 10.4983Z" fill="#660099"/>
</svg>
