<svg width="70" height="28" viewBox="0 0 70 28" fill="none" 
 xmlns="http://www.w3.org/2000/svg">
 <path d="M43.0649 14.8837V14.9529L43.0417 15.1143C43.0451 15.1469 43.0369 15.1796 43.0184 15.2067L42.3273 19.2387C42.2643 19.6714 42.0484 20.0673 41.7188 20.3546C41.3891 20.642 40.9675 20.8018 40.5302 20.8051H39.332C38.8496 20.804 38.3873 20.6118 38.0462 20.2707C37.7051 19.9296 37.5129 19.4673 37.5118 18.9849V18.939H37.4885L38.2029 14.6996C38.387 13.617 39.0555 12.9949 40.0459 12.9949H41.4741L41.4973 13.0181C41.9276 13.0822 42.3205 13.2991 42.604 13.6291C42.8875 13.9591 43.0427 14.3801 43.0411 14.8152C43.0499 14.8242 43.0565 14.8352 43.0606 14.8471C43.0646 14.8591 43.0659 14.8718 43.0643 14.8843L43.0649 14.8837ZM45.463 20.0449L46.1774 15.5064C46.2194 15.3008 46.2502 15.0932 46.2697 14.8843V14.8384C46.2697 14.7234 46.2929 14.6078 46.2929 14.4928C46.2929 13.3196 45.8269 12.1945 44.9973 11.3649C44.1677 10.5354 43.0426 10.0693 41.8694 10.0693H39.6118C37.4001 10.0693 35.488 11.7281 35.1883 13.9167V13.9626L35.1424 14.0084L34.3561 18.8699L34.3794 18.8931V18.9622C34.3608 19.0996 34.353 19.2383 34.3561 19.3769C34.3561 21.796 36.3373 23.7545 38.7337 23.7545H41.1296C42.1551 23.7553 43.1483 23.3959 43.9358 22.739C44.7232 22.0821 45.255 21.1694 45.4381 20.1604L45.4613 20.0454" fill="white"/>
 <path d="M23.4126 14.2389C23.3667 14.6536 23.3667 14.7459 23.2744 14.7459C23.2053 14.8842 23.0438 15.0224 22.7906 15.0915C22.3504 15.1833 18.413 16.2433 18.3693 16.2433C17.8396 16.4047 17.6549 16.658 17.6549 16.658L18.0928 14.3307C18.0928 14.3307 18.2543 12.9942 20.0281 12.9942H22.309C22.6546 12.9942 22.931 13.1092 23.1151 13.3166C23.3894 13.5936 23.4359 13.9851 23.4126 14.2389ZM26.4305 13.4554C26.4311 13.0014 26.3421 12.5517 26.1687 12.1322C25.9952 11.7126 25.7407 11.3314 25.4197 11.0104C25.0986 10.6894 24.7174 10.4349 24.2979 10.2614C23.8783 10.0879 23.4287 9.99893 22.9747 9.99951H19.5858L19.3784 10.0227C17.4199 10.161 15.7384 11.5892 15.3237 13.5018V13.5477C15.024 15.5521 14.4484 19.2385 14.4252 19.3535C14.3329 20.3903 14.6807 21.427 15.4387 22.2564C15.8757 22.7322 16.406 23.1127 16.9966 23.3744C17.5872 23.636 18.2254 23.7731 18.8714 23.777H22.4196C23.7328 23.777 24.8386 22.8094 25.0692 21.4962L25.3916 19.4226H23.4126C22.8597 19.4226 22.3759 19.7223 22.1917 20.252C22.1474 20.4021 22.0565 20.5342 21.9324 20.6294C21.8082 20.7245 21.657 20.7779 21.5006 20.7818H18.7564C17.9728 20.7359 17.3281 20.2056 17.3972 19.6068C17.4431 19.1921 17.7196 19.0306 18.4799 18.8006L23.9423 17.3491C23.9656 17.3491 25.9467 16.7503 26.1541 15.2297C26.1773 15.0224 26.2 14.9533 26.2232 14.7918C26.2464 14.6768 26.2691 14.5153 26.3155 14.2389C26.3987 13.9863 26.4376 13.7212 26.4305 13.4554Z" fill="white"/>
 <path d="M66.9793 14.2389C66.9334 14.6536 66.9334 14.7459 66.8411 14.7459C66.7719 14.8842 66.6105 15.0224 66.3572 15.0915C65.9193 15.1838 61.9796 16.2433 61.9337 16.2433C61.404 16.4047 61.2194 16.658 61.2194 16.658L61.6573 14.3312C61.6573 14.3312 61.8187 12.9948 63.5926 12.9948H65.8734C66.219 12.9948 66.4955 13.1098 66.6796 13.3171C66.9328 13.5936 67.002 13.9851 66.9793 14.2389ZM69.9972 13.4554C69.9978 13.0014 69.9088 12.5517 69.7353 12.1322C69.5619 11.7126 69.3073 11.3314 68.9863 11.0104C68.6653 10.6894 68.2841 10.4349 67.8645 10.2614C67.445 10.0879 66.9953 9.99893 66.5414 9.99951H63.1568L62.9727 10.0227C61.0142 10.161 59.3327 11.5892 58.918 13.5018V13.5477C58.6183 15.5521 58.0427 19.2385 58.0195 19.3535C57.9272 20.3903 58.2728 21.427 59.033 22.2564C59.47 22.7322 60.0003 23.1127 60.5909 23.3744C61.1815 23.636 61.8197 23.7731 62.4657 23.777H65.6683V23.7538H66.0139C66.6494 23.7543 67.2641 23.5267 67.7461 23.1124C68.2281 22.6981 68.5454 22.1246 68.6403 21.4962L68.9627 19.4226H66.9815C66.714 19.4194 66.4527 19.503 66.2366 19.6608C66.0206 19.8186 65.8616 20.0421 65.7833 20.2979C65.7378 20.4455 65.646 20.5744 65.5216 20.6658C65.3971 20.7571 65.2465 20.8059 65.0921 20.805H62.3507C61.5672 20.7591 60.9224 20.2062 60.9915 19.5841C61.0374 19.1694 61.3139 19.0079 62.0742 18.7779L67.5344 17.3265C67.5577 17.3265 69.5388 16.7276 69.7462 15.2071C69.7694 14.9997 69.7921 14.9306 69.8153 14.7691C69.8385 14.6541 69.8612 14.4927 69.9076 14.2162C69.9624 13.9663 69.9934 13.7117 70 13.4559" fill="white"/>
 <path d="M57.5561 11.7274L57.8325 9.99951H55.5262C53.6833 10.0686 52.2545 12.8565 52.2545 12.8565L52.646 10.6448H49.2825L47.1631 23.777H50.5039L51.7713 16.1509C52.186 14.4689 53.6606 13.2939 55.3886 13.2939C55.5042 13.2902 55.62 13.2979 55.7341 13.3171C56.1682 13.3152 56.5874 13.1587 56.9167 12.8759C57.246 12.593 57.4638 12.2022 57.5312 11.7733L57.5544 11.7274" fill="white"/>
 <path d="M8.89775 19.5378V19.561C8.82175 19.9076 8.62946 20.2176 8.35284 20.4397C8.07622 20.6618 7.73192 20.7826 7.37717 20.7819H5.14221C4.73277 20.7819 4.3401 20.6193 4.05058 20.3298C3.76106 20.0402 3.59841 19.6476 3.59841 19.2381C3.59841 19.1922 4.63517 11.6353 4.63517 11.6353C4.90368 11.9604 5.24247 12.2204 5.62603 12.3956L8.75951 13.847C8.99082 13.9854 9.18252 14.1811 9.31609 14.4152C9.44966 14.6493 9.52059 14.9139 9.52201 15.1835C9.49658 15.2067 9.52201 15.529 8.89775 19.5378ZM13.0215 15.3217C13.4595 12.6952 11.1786 11.6126 11.0863 11.5661C10.948 11.497 7.26161 10.0456 6.17896 9.44674C5.07309 8.82469 5.34956 7.44235 5.37278 7.30412L5.78748 4.2862C5.94894 3.11121 5.78748 2.23591 5.32689 1.70565C4.91219 1.22183 4.33603 1.15271 4.05956 1.15271H2.9078L0.0739996 18.4778C-0.225692 20.2981 0.442808 21.519 1.04164 22.2334C1.84782 23.1778 3.06925 23.7772 4.24424 23.7772H7.99978C10.2347 23.7772 12.1236 22.0034 12.285 19.7452C12.3774 19.0999 12.6538 17.4643 13.0221 15.3217" fill="white"/>
 <path d="M35.2338 2.30433L35.7177 0.000244141H33.3422C32.5318 0.03514 31.7595 0.35454 31.1612 0.902326C30.5628 1.45011 30.1767 2.19124 30.0705 2.9955L30.0473 3.04139L26.085 27.2556H26.5229C28.2276 27.2556 29.6564 26.0347 29.9328 24.3294L30.3243 22.2791L31.4993 14.6995C31.5214 14.3791 31.6648 14.0793 31.9002 13.861C32.1357 13.6427 32.4455 13.5223 32.7666 13.5245H33.2046L33.7343 9.99953H32.2364L33.1581 4.44695C33.204 3.96313 33.3196 3.4102 33.9416 3.31786L33.9648 3.29464H34.0107C34.7251 3.2023 35.1398 3.1564 35.2316 2.30377" fill="white"/>
</svg>
