<svg width="15" height="15" viewBox="0 0 15 15" fill="none" xmlns="http://www.w3.org/2000/svg">
<path d="M12.4396 0.00012207H2.56044C1.14286 0.00012207 0 1.14298 0 2.56056V12.4397C0 13.8573 1.14286 15.0001 2.56044 15.0001H12.4396C13.8571 15.0001 15 13.8573 15 12.4397V2.56056C15.011 1.15397 13.8571 0.00012207 12.4396 0.00012207ZM12.5165 4.94518C12.1538 5.30781 11.978 5.39573 11.978 5.39573V5.38474C11.8791 8.45067 9.83517 11.5606 6.20879 11.7584C4.84615 11.8353 3.58242 11.2748 2.60439 10.4726C2.95604 10.5825 3.32967 10.6375 3.71428 10.6375C4.45055 10.6375 5.14286 10.3628 5.73626 9.90122C5.73626 9.90122 3.70329 9.34078 3.75824 8.39573L4.72527 8.37375C4.72527 8.37375 4.10989 8.18694 3.76923 7.87924C3.18681 7.35177 2.84615 6.6265 3.02198 6.20891C3.02198 6.20891 3.13187 6.30781 3.40659 6.39573C3.69231 6.49463 3.95604 6.48364 3.95604 6.48364C3.95604 6.48364 3.35165 6.05507 3.17582 5.58254C2.9011 4.83529 3.04396 3.89023 3.30769 3.59353C3.30769 3.59353 3.41758 4.19792 5.14286 5.06606C6.01099 5.50562 7 5.8243 7.75824 5.84628C7.7033 5.67045 7.67033 5.32979 7.67033 5.13199C7.67033 4.08803 8.63736 3.25287 9.82417 3.25287C10.4945 3.25287 11.0879 3.51661 11.4835 3.93419L12.0549 3.68144L12.7363 3.39573C12.7363 3.39573 12.7692 3.43968 12.7473 3.53858C12.6813 3.78034 12.1429 4.30781 11.9341 4.47265L11.9231 4.51661C11.9231 4.51661 12.0989 4.5276 12.3297 4.46166C12.5604 4.39573 13.0989 4.16496 13.0989 4.16496C13.0989 4.16496 12.8791 4.58254 12.5165 4.94518Z" fill="white"/>
</svg>
