<svg width="30" height="30" viewBox="0 0 30 30" fill="none" 
 xmlns="http://www.w3.org/2000/svg">
 <path d="M13.1896 0.00012207H3.31044C1.89286 0.00012207 0.75 1.14298 0.75 2.56056V12.4397C0.75 13.8573 1.89286 15.0001 3.31044 15.0001H8.72802V9.24188H6.79396V7.00012H8.72802V5.34078C8.72802 3.4177 9.90385 2.37375 11.6181 2.37375C12.4423 2.37375 13.1456 2.43968 13.3544 2.46166V4.47265H12.1676C11.2335 4.47265 11.0577 4.91221 11.0577 5.56056V6.98913H13.2775L12.9808 9.24188H11.0467V15.0001H13.1896C14.6071 15.0001 15.75 13.8463 15.75 12.4397V2.56056C15.75 1.14298 14.6071 0.00012207 13.1896 0.00012207Z" fill="white"/>
</svg>
