<svg width="26" height="25" viewBox="0 0 26 25" fill="none" 
 xmlns="http://www.w3.org/2000/svg">
 <mask id="path-1-outside-1" maskUnits="userSpaceOnUse" x="-1.18812e-08" y="8.88995" width="26" height="8" fill="black">
  <rect fill="white" x="-1.18812e-08" y="8.88995" width="26" height="8"/>
  <path fill-rule="evenodd" clip-rule="evenodd" d="M1.45085 12.1534L13.0878 12.1534L13.1281 11.9531C13.4314 10.4466 14.7709 9.31206 16.3671 9.31206C17.9678 9.31206 19.3027 10.4512 19.606 11.9532L19.6464 12.1534L24.9395 12.1534C25.1924 12.1534 25.3903 12.3531 25.3903 12.601C25.3903 12.8489 25.1924 13.0486 24.9395 13.0486L19.6464 13.0486L19.606 13.2488C19.3027 14.7508 17.9678 15.89 16.3671 15.89C14.7663 15.89 13.4314 14.7508 13.1281 13.2488L13.0877 13.0486L1.45085 13.0486C1.19797 13.0486 1.00005 12.8489 1.00005 12.601C1.00005 12.3531 1.19797 12.1534 1.45085 12.1534ZM16.3671 14.9947C17.6898 14.9947 18.7668 13.9236 18.7668 12.601C18.7668 11.2784 17.6898 10.2073 16.3671 10.2073C15.0444 10.2073 13.9673 11.2784 13.9673 12.601C13.9673 13.9236 15.0444 14.9947 16.3671 14.9947Z"/>
 </mask>
 <path fill-rule="evenodd" clip-rule="evenodd" d="M1.45085 12.1534L13.0878 12.1534L13.1281 11.9531C13.4314 10.4466 14.7709 9.31206 16.3671 9.31206C17.9678 9.31206 19.3027 10.4512 19.606 11.9532L19.6464 12.1534L24.9395 12.1534C25.1924 12.1534 25.3903 12.3531 25.3903 12.601C25.3903 12.8489 25.1924 13.0486 24.9395 13.0486L19.6464 13.0486L19.606 13.2488C19.3027 14.7508 17.9678 15.89 16.3671 15.89C14.7663 15.89 13.4314 14.7508 13.1281 13.2488L13.0877 13.0486L1.45085 13.0486C1.19797 13.0486 1.00005 12.8489 1.00005 12.601C1.00005 12.3531 1.19797 12.1534 1.45085 12.1534ZM16.3671 14.9947C17.6898 14.9947 18.7668 13.9236 18.7668 12.601C18.7668 11.2784 17.6898 10.2073 16.3671 10.2073C15.0444 10.2073 13.9673 11.2784 13.9673 12.601C13.9673 13.9236 15.0444 14.9947 16.3671 14.9947Z" fill="#ffffff"/>
 <path d="M13.0878 12.1534L13.0878 12.3534L13.2516 12.3534L13.2839 12.1929L13.0878 12.1534ZM13.1281 11.9531L13.3242 11.9925L13.3242 11.9925L13.1281 11.9531ZM19.606 11.9532L19.41 11.9928L19.41 11.9928L19.606 11.9532ZM19.6464 12.1534L19.4504 12.193L19.4828 12.3534L19.6464 12.3534L19.6464 12.1534ZM19.6464 13.0486L19.6464 12.8486L19.4828 12.8486L19.4504 13.0091L19.6464 13.0486ZM19.606 13.2488L19.41 13.2092L19.41 13.2092L19.606 13.2488ZM13.1281 13.2488L12.9321 13.2884L12.9321 13.2884L13.1281 13.2488ZM13.0877 13.0486L13.2837 13.0091L13.2513 12.8486L13.0877 12.8486L13.0877 13.0486ZM13.0878 11.9534L1.45085 11.9534L1.45085 12.3534L13.0878 12.3534L13.0878 11.9534ZM12.9321 11.9136L12.8918 12.1139L13.2839 12.1929L13.3242 11.9925L12.9321 11.9136ZM16.3671 9.11206C14.6744 9.11206 13.2539 10.3149 12.9321 11.9136L13.3242 11.9925C13.6089 10.5782 14.8673 9.51206 16.3671 9.51206L16.3671 9.11206ZM19.802 11.9136C19.4802 10.32 18.0647 9.11206 16.3671 9.11206L16.3671 9.51206C17.871 9.51206 19.1252 10.5824 19.41 11.9928L19.802 11.9136ZM19.8425 12.1138L19.802 11.9136L19.41 11.9928L19.4504 12.193L19.8425 12.1138ZM24.9395 11.9534L19.6464 11.9534L19.6464 12.3534L24.9395 12.3534L24.9395 11.9534ZM25.5903 12.601C25.5903 12.2423 25.3024 11.9534 24.9395 11.9534L24.9395 12.3534C25.0823 12.3534 25.1903 12.464 25.1903 12.601L25.5903 12.601ZM24.9395 13.2486C25.3024 13.2486 25.5903 12.9597 25.5903 12.601L25.1903 12.601C25.1903 12.738 25.0823 12.8486 24.9395 12.8486L24.9395 13.2486ZM19.6464 13.2486L24.9395 13.2486L24.9395 12.8486L19.6464 12.8486L19.6464 13.2486ZM19.802 13.2884L19.8425 13.0882L19.4504 13.0091L19.41 13.2092L19.802 13.2884ZM16.3671 16.09C18.0647 16.09 19.4802 14.8821 19.802 13.2884L19.41 13.2092C19.1252 14.6196 17.871 15.69 16.3671 15.69L16.3671 16.09ZM12.9321 13.2884C13.2539 14.8821 14.6694 16.09 16.3671 16.09L16.3671 15.69C14.8632 15.69 13.609 14.6196 13.3242 13.2092L12.9321 13.2884ZM12.8916 13.0882L12.9321 13.2884L13.3242 13.2092L13.2837 13.0091L12.8916 13.0882ZM1.45085 13.2486L13.0877 13.2486L13.0877 12.8486L1.45085 12.8486L1.45085 13.2486ZM0.800049 12.601C0.800049 12.9597 1.0879 13.2486 1.45085 13.2486L1.45085 12.8486C1.30803 12.8486 1.20005 12.738 1.20005 12.601L0.800049 12.601ZM1.45085 11.9534C1.0879 11.9534 0.800049 12.2423 0.800049 12.601L1.20005 12.601C1.20005 12.464 1.30803 12.3534 1.45085 12.3534L1.45085 11.9534ZM18.5668 12.601C18.5668 13.8125 17.5799 14.7947 16.3671 14.7947L16.3671 15.1947C17.7996 15.1947 18.9668 14.0347 18.9668 12.601L18.5668 12.601ZM16.3671 10.4073C17.5799 10.4073 18.5668 11.3895 18.5668 12.601L18.9668 12.601C18.9668 11.1673 17.7996 10.0073 16.3671 10.0073L16.3671 10.4073ZM14.1673 12.601C14.1673 11.3895 15.1542 10.4073 16.3671 10.4073L16.3671 10.0073C14.9346 10.0073 13.7673 11.1673 13.7673 12.601L14.1673 12.601ZM16.3671 14.7947C15.1542 14.7947 14.1673 13.8125 14.1673 12.601L13.7673 12.601C13.7673 14.0347 14.9346 15.1947 16.3671 15.1947L16.3671 14.7947Z" fill="#ffffff" mask="url(#path-1-outside-1)"/>
 <mask id="path-3-outside-2" maskUnits="userSpaceOnUse" x="-1.18812e-08" y="17.6328" width="26" height="8" fill="black">
  <rect fill="white" x="-1.18812e-08" y="17.6328" width="26" height="8"/>
  <path fill-rule="evenodd" clip-rule="evenodd" d="M1.45085 20.8962L7.22072 20.8962L7.26114 20.696C7.56453 19.1936 8.89455 18.0549 10.4949 18.0549C12.0957 18.0549 13.4305 19.194 13.7338 20.696L13.7743 20.8962L24.9395 20.8962C25.1924 20.8962 25.3903 21.0959 25.3903 21.3438C25.3903 21.5917 25.1924 21.7914 24.9395 21.7914L13.7795 21.7914L13.739 21.9916C13.4357 23.4936 12.1009 24.6328 10.5001 24.6328C8.89929 24.6328 7.56444 23.4936 7.26114 21.9916L7.22072 21.7914L1.45085 21.7914C1.19797 21.7914 1.00005 21.5917 1.00005 21.3438C1.00005 21.0959 1.19797 20.8962 1.45085 20.8962ZM10.5001 23.7375C11.8228 23.7375 12.8998 22.6664 12.8998 21.3438C12.8998 20.0268 11.8232 18.9501 10.5001 18.9501C9.17739 18.9501 8.10033 20.0212 8.10033 21.3438C8.10033 22.6664 9.17739 23.7375 10.5001 23.7375Z"/>
 </mask>
 <path fill-rule="evenodd" clip-rule="evenodd" d="M1.45085 20.8962L7.22072 20.8962L7.26114 20.696C7.56453 19.1936 8.89455 18.0549 10.4949 18.0549C12.0957 18.0549 13.4305 19.194 13.7338 20.696L13.7743 20.8962L24.9395 20.8962C25.1924 20.8962 25.3903 21.0959 25.3903 21.3438C25.3903 21.5917 25.1924 21.7914 24.9395 21.7914L13.7795 21.7914L13.739 21.9916C13.4357 23.4936 12.1009 24.6328 10.5001 24.6328C8.89929 24.6328 7.56444 23.4936 7.26114 21.9916L7.22072 21.7914L1.45085 21.7914C1.19797 21.7914 1.00005 21.5917 1.00005 21.3438C1.00005 21.0959 1.19797 20.8962 1.45085 20.8962ZM10.5001 23.7375C11.8228 23.7375 12.8998 22.6664 12.8998 21.3438C12.8998 20.0268 11.8232 18.9501 10.5001 18.9501C9.17739 18.9501 8.10033 20.0212 8.10033 21.3438C8.10033 22.6664 9.17739 23.7375 10.5001 23.7375Z" fill="#ffffff"/>
 <path d="M7.22072 20.8962L7.22072 21.0962L7.38437 21.0962L7.41676 20.9358L7.22072 20.8962ZM7.26114 20.696L7.45718 20.7356L7.45718 20.7356L7.26114 20.696ZM13.7338 20.696L13.9299 20.6564L13.9299 20.6564L13.7338 20.696ZM13.7743 20.8962L13.5782 20.9358L13.6106 21.0962L13.7743 21.0962L13.7743 20.8962ZM13.7795 21.7914L13.7795 21.5914L13.6158 21.5914L13.5834 21.7519L13.7795 21.7914ZM13.739 21.9916L13.9351 22.0312L13.9351 22.0312L13.739 21.9916ZM7.26114 21.9916L7.45718 21.952L7.45718 21.952L7.26114 21.9916ZM7.22072 21.7914L7.41676 21.7519L7.38437 21.5914L7.22072 21.5914L7.22072 21.7914ZM7.22072 20.6962L1.45085 20.6962L1.45085 21.0962L7.22072 21.0962L7.22072 20.6962ZM7.0651 20.6564L7.02467 20.8566L7.41676 20.9358L7.45718 20.7356L7.0651 20.6564ZM10.4949 17.8549C8.79731 17.8549 7.38692 19.0627 7.0651 20.6564L7.45718 20.7356C7.74214 19.3244 8.99179 18.2549 10.4949 18.2549L10.4949 17.8549ZM13.9299 20.6564C13.6081 19.0628 12.1926 17.8549 10.4949 17.8549L10.4949 18.2549C11.9988 18.2549 13.253 19.3252 13.5378 20.7356L13.9299 20.6564ZM13.9703 20.8566L13.9299 20.6564L13.5378 20.7356L13.5782 20.9358L13.9703 20.8566ZM24.9395 20.6962L13.7743 20.6962L13.7743 21.0962L24.9395 21.0962L24.9395 20.6962ZM25.5903 21.3438C25.5903 20.9851 25.3024 20.6962 24.9395 20.6962L24.9395 21.0962C25.0823 21.0962 25.1903 21.2068 25.1903 21.3438L25.5903 21.3438ZM24.9395 21.9914C25.3024 21.9914 25.5903 21.7025 25.5903 21.3438L25.1903 21.3438C25.1903 21.4808 25.0823 21.5914 24.9395 21.5914L24.9395 21.9914ZM13.7795 21.9914L24.9395 21.9914L24.9395 21.5914L13.7795 21.5914L13.7795 21.9914ZM13.9351 22.0312L13.9755 21.831L13.5834 21.7519L13.543 21.952L13.9351 22.0312ZM10.5001 24.8328C12.1978 24.8328 13.6133 23.6249 13.9351 22.0312L13.543 21.952C13.2582 23.3624 12.004 24.4328 10.5001 24.4328L10.5001 24.8328ZM7.0651 22.0312C7.3869 23.6249 8.8024 24.8328 10.5001 24.8328L10.5001 24.4328C8.99618 24.4328 7.74198 23.3624 7.45718 21.952L7.0651 22.0312ZM7.02467 21.831L7.0651 22.0312L7.45718 21.952L7.41676 21.7519L7.02467 21.831ZM1.45085 21.9914L7.22072 21.9914L7.22072 21.5914L1.45085 21.5914L1.45085 21.9914ZM0.800049 21.3438C0.800049 21.7025 1.0879 21.9914 1.45085 21.9914L1.45085 21.5914C1.30803 21.5914 1.20005 21.4808 1.20005 21.3438L0.800049 21.3438ZM1.45085 20.6962C1.0879 20.6962 0.800049 20.9851 0.800049 21.3438L1.20005 21.3438C1.20005 21.2068 1.30803 21.0962 1.45085 21.0962L1.45085 20.6962ZM12.6998 21.3438C12.6998 22.5553 11.713 23.5375 10.5001 23.5375L10.5001 23.9375C11.9326 23.9375 13.0998 22.7775 13.0998 21.3438L12.6998 21.3438ZM10.5001 19.1501C11.713 19.1501 12.6998 20.1375 12.6998 21.3438L13.0998 21.3438C13.0998 19.916 11.9333 18.7501 10.5001 18.7501L10.5001 19.1501ZM8.30033 21.3438C8.30033 20.1323 9.28719 19.1501 10.5001 19.1501L10.5001 18.7501C9.06758 18.7501 7.90033 19.9101 7.90033 21.3438L8.30033 21.3438ZM10.5001 23.5375C9.28719 23.5375 8.30033 22.5553 8.30033 21.3438L7.90033 21.3438C7.90033 22.7775 9.06758 23.9375 10.5001 23.9375L10.5001 23.5375Z" fill="#ffffff" mask="url(#path-3-outside-2)"/>
 <mask id="path-5-outside-3" maskUnits="userSpaceOnUse" x="-1.18812e-08" y="0.563477" width="26" height="8" fill="black">
  <rect fill="white" x="-1.18812e-08" y="0.563477" width="26" height="8"/>
  <path fill-rule="evenodd" clip-rule="evenodd" d="M1.45071 3.82696L7.21955 3.82696L7.25987 3.62662C7.56318 2.11944 8.89258 0.985617 10.4929 0.985617C12.0933 0.985617 13.4278 2.12473 13.7311 3.62677L13.7715 3.82696L24.9396 3.82696C25.1924 3.82696 25.3903 4.02666 25.3903 4.27458C25.3903 4.5225 25.1924 4.72221 24.9396 4.72221L13.7767 4.72221L13.7363 4.92239C13.433 6.42443 12.0985 7.56354 10.4981 7.56354C8.89766 7.56354 7.56308 6.42443 7.25984 4.92239L7.21942 4.72221L1.45071 4.72221C1.19795 4.72221 1.00005 4.5225 1.00005 4.27458C1.00005 4.02666 1.19795 3.82696 1.45071 3.82696ZM10.4981 6.66829C11.8206 6.66829 12.8974 5.59714 12.8974 4.27458C12.8974 2.95202 11.8206 1.88087 10.4981 1.88087C9.17556 1.88087 8.09875 2.95202 8.09875 4.27458C8.09875 5.59714 9.17556 6.66829 10.4981 6.66829Z"/>
 </mask>
 <path fill-rule="evenodd" clip-rule="evenodd" d="M1.45071 3.82696L7.21955 3.82696L7.25987 3.62662C7.56318 2.11944 8.89258 0.985617 10.4929 0.985617C12.0933 0.985617 13.4278 2.12473 13.7311 3.62677L13.7715 3.82696L24.9396 3.82696C25.1924 3.82696 25.3903 4.02666 25.3903 4.27458C25.3903 4.5225 25.1924 4.72221 24.9396 4.72221L13.7767 4.72221L13.7363 4.92239C13.433 6.42443 12.0985 7.56354 10.4981 7.56354C8.89766 7.56354 7.56308 6.42443 7.25984 4.92239L7.21942 4.72221L1.45071 4.72221C1.19795 4.72221 1.00005 4.5225 1.00005 4.27458C1.00005 4.02666 1.19795 3.82696 1.45071 3.82696ZM10.4981 6.66829C11.8206 6.66829 12.8974 5.59714 12.8974 4.27458C12.8974 2.95202 11.8206 1.88087 10.4981 1.88087C9.17556 1.88087 8.09875 2.95202 8.09875 4.27458C8.09875 5.59714 9.17556 6.66829 10.4981 6.66829Z" fill="#ffffff"/>
 <path d="M7.21955 3.82696L7.21955 4.02696L7.38331 4.02696L7.41562 3.86641L7.21955 3.82696ZM7.25987 3.62662L7.45594 3.66608L7.45594 3.66608L7.25987 3.62662ZM13.7311 3.62677L13.9271 3.58719L13.9271 3.58719L13.7311 3.62677ZM13.7715 3.82696L13.5755 3.86653L13.6079 4.02696L13.7715 4.02696L13.7715 3.82696ZM13.7767 4.72221L13.7767 4.52221L13.613 4.52221L13.5806 4.68263L13.7767 4.72221ZM13.7363 4.92239L13.9323 4.96197L13.9323 4.96197L13.7363 4.92239ZM7.25984 4.92239L7.06379 4.96197L7.06379 4.96197L7.25984 4.92239ZM7.21942 4.72221L7.41547 4.68263L7.38308 4.52221L7.21942 4.52221L7.21942 4.72221ZM7.21955 3.62696L1.45071 3.62696L1.45071 4.02696L7.21955 4.02696L7.21955 3.62696ZM7.0638 3.58716L7.02348 3.7875L7.41562 3.86641L7.45594 3.66608L7.0638 3.58716ZM10.4929 0.785617C8.79558 0.785617 7.38556 1.98834 7.0638 3.58716L7.45594 3.66608C7.74081 2.25054 8.98958 1.18562 10.4929 1.18562L10.4929 0.785617ZM13.9271 3.58719C13.6054 1.99353 12.1902 0.785617 10.4929 0.785617L10.4929 1.18562C11.9963 1.18562 13.2503 2.25593 13.535 3.66635L13.9271 3.58719ZM13.9676 3.78738L13.9271 3.58719L13.535 3.66635L13.5755 3.86653L13.9676 3.78738ZM24.9396 3.62696L13.7715 3.62696L13.7715 4.02696L24.9396 4.02696L24.9396 3.62696ZM25.5903 4.27458C25.5903 3.91584 25.3025 3.62696 24.9396 3.62696L24.9396 4.02696C25.0823 4.02696 25.1903 4.13747 25.1903 4.27458L25.5903 4.27458ZM24.9396 4.92221C25.3025 4.92221 25.5903 4.63332 25.5903 4.27458L25.1903 4.27458C25.1903 4.41169 25.0823 4.52221 24.9396 4.52221L24.9396 4.92221ZM13.7767 4.92221L24.9396 4.92221L24.9396 4.52221L13.7767 4.52221L13.7767 4.92221ZM13.9323 4.96197L13.9727 4.76178L13.5806 4.68263L13.5402 4.88281L13.9323 4.96197ZM10.4981 7.76354C12.1954 7.76354 13.6106 6.55563 13.9323 4.96197L13.5402 4.88281C13.2555 6.29324 12.0015 7.36354 10.4981 7.36354L10.4981 7.76354ZM7.06379 4.96197C7.38554 6.55563 8.80074 7.76354 10.4981 7.76354L10.4981 7.36354C8.99458 7.36354 7.74063 6.29324 7.45588 4.88281L7.06379 4.96197ZM7.02338 4.76178L7.06379 4.96197L7.45588 4.88281L7.41547 4.68263L7.02338 4.76178ZM1.45071 4.92221L7.21942 4.92221L7.21942 4.52221L1.45071 4.52221L1.45071 4.92221ZM0.800049 4.27458C0.800049 4.63332 1.08785 4.92221 1.45071 4.92221L1.45071 4.52221C1.30805 4.52221 1.20005 4.41169 1.20005 4.27458L0.800049 4.27458ZM1.45071 3.62696C1.08785 3.62696 0.800049 3.91584 0.800049 4.27458L1.20005 4.27458C1.20005 4.13747 1.30805 4.02696 1.45071 4.02696L1.45071 3.62696ZM12.6974 4.27458C12.6974 5.48608 11.7107 6.46829 10.4981 6.46829L10.4981 6.86829C11.9304 6.86829 13.0974 5.70821 13.0974 4.27458L12.6974 4.27458ZM10.4981 2.08087C11.7107 2.08087 12.6974 3.06308 12.6974 4.27458L13.0974 4.27458C13.0974 2.84095 11.9304 1.68087 10.4981 1.68087L10.4981 2.08087ZM8.29875 4.27458C8.29875 3.06308 9.2854 2.08087 10.4981 2.08087L10.4981 1.68087C9.06571 1.68087 7.89875 2.84095 7.89875 4.27458L8.29875 4.27458ZM10.4981 6.46829C9.2854 6.46829 8.29875 5.48608 8.29875 4.27458L7.89875 4.27458C7.89875 5.70821 9.06571 6.86829 10.4981 6.86829L10.4981 6.46829Z" fill="#ffffff" mask="url(#path-5-outside-3)"/>
</svg>
