<svg width="230" height="69" viewBox="0 0 230 69" fill="none" xmlns="http://www.w3.org/2000/svg">
<path d="M42.1899 44.5074V20.8441C42.1899 18.4378 43.7808 16.6863 45.9609 16.6863H49.4878C51.6679 16.6863 53.2503 18.4293 53.2503 20.8441V44.5074C53.2503 46.9137 51.6679 48.6653 49.4878 48.6653H45.9609C43.7808 48.6653 42.1899 46.9222 42.1899 44.5074Z" fill="white"/>
<path d="M54.0214 6.28328C54.0214 9.7561 51.2416 12.5666 47.8068 12.5666C44.372 12.5666 41.5923 9.7561 41.5923 6.28328C41.5923 2.81049 44.372 0 47.8068 0C51.2416 0 54.0214 2.81049 54.0214 6.28328Z" fill="white"/>
<path d="M96.4541 32.6523C96.4541 23.6901 103.814 16.4014 112.872 16.4014C121.921 16.4014 129.289 23.6901 129.289 32.6523C129.289 41.6146 121.921 48.9033 112.872 48.9033C103.822 48.9033 96.4541 41.6146 96.4541 32.6523ZM106.446 32.6523C106.446 36.2287 109.323 39.1426 112.872 39.1426C116.413 39.1426 119.297 36.2287 119.297 32.6523C119.297 29.0675 116.413 26.1537 112.872 26.1537C109.323 26.1537 106.446 29.0675 106.446 32.6523Z" fill="white"/>
<path d="M76.3457 48.0319C74.3193 48.0319 72.3182 47.658 71.3345 45.8395C70.3508 44.0295 59.2943 24.4338 58.4282 22.8873C57.6379 21.4766 57.9237 19.0293 59.866 18.0521C61.0516 17.4573 61.6401 17.1514 62.6743 16.6245C64.5073 15.6982 66.7942 15.8937 68.232 18.426C69.098 19.9386 76.2952 34.4866 76.2952 34.4866H76.3625C76.3625 34.4866 83.5685 19.947 84.4339 18.426C85.8717 15.8937 88.1676 15.6982 90.0002 16.6245C91.0432 17.1514 91.6228 17.4573 92.8087 18.0521C94.751 19.0208 95.0449 21.4766 94.2465 22.8873C93.1865 24.7738 82.3745 44.0465 81.34 45.8395C80.2975 47.6325 78.3552 48.0319 76.3457 48.0319Z" fill="white"/>
<path d="M19.1067 48.0319C17.0797 48.0319 15.0779 47.658 14.1022 45.8395C13.1181 44.0295 2.05788 24.4338 1.19156 22.8873C0.400934 21.4766 0.686903 19.0293 2.62981 18.0521C3.80733 17.4573 4.3961 17.1514 5.43904 16.6245C7.2642 15.7067 9.56035 15.9022 10.9986 18.426C11.865 19.9386 19.0562 34.4866 19.0562 34.4866H19.1319C19.1319 34.4866 26.3401 19.947 27.1979 18.426C28.6362 15.8937 30.9323 15.6982 32.7575 16.6245C33.8005 17.1514 34.3893 17.4658 35.5668 18.0521C37.5181 19.0208 37.8041 21.4766 37.0135 22.8873C35.9452 24.7738 25.1373 44.0465 24.0943 45.8395C23.0598 47.6325 21.1169 48.0319 19.0983 48.0319H19.1067Z" fill="white"/>
<path fill-rule="evenodd" clip-rule="evenodd" d="M166.402 9.7807C170.325 9.7807 173.885 11.3446 176.503 13.8876C177.393 14.8861 178.684 15.5141 180.121 15.5141C182.806 15.5141 184.983 13.3218 184.983 10.6174C184.983 9.1653 184.355 7.86079 183.358 6.96406C178.984 2.65548 173.001 0 166.402 0C153.003 0 142.142 10.9474 142.142 24.4517C142.142 37.9561 153.003 48.9035 166.402 48.9035C174.343 48.9035 181.392 45.0583 185.818 39.1144C190.247 45.0583 197.301 48.9035 205.247 48.9035C218.654 48.9035 229.523 37.9561 229.523 24.4517C229.523 10.9474 218.654 0 205.247 0C198.55 0 192.486 2.73159 188.094 7.14897L188.101 7.15578C187.224 8.04184 186.682 9.26567 186.682 10.6174C186.682 13.3218 188.852 15.5141 191.528 15.5141C192.941 15.5141 194.213 14.9027 195.099 13.9274C197.722 11.3609 201.301 9.7807 205.247 9.7807C213.291 9.7807 219.813 16.3491 219.813 24.4517C219.813 32.5543 213.291 39.1228 205.247 39.1228C197.208 39.1228 190.69 32.563 190.681 24.4677H190.663C190.663 24.4624 190.663 24.4571 190.663 24.4517C190.663 21.7299 188.49 19.5234 185.811 19.5234H171.254C168.575 19.5234 166.402 21.7299 166.402 24.4517C166.402 27.1736 168.575 29.3801 171.254 29.3801H180.116C178.108 35.0584 172.726 39.1228 166.402 39.1228C158.363 39.1228 151.846 32.5543 151.846 24.4517C151.846 16.3491 158.363 9.7807 166.402 9.7807Z" fill="white"/>
<path d="M18.8901 66.05C18.3767 66.05 17.8867 65.9633 17.4201 65.79C16.9601 65.61 16.6001 65.38 16.3401 65.1L16.5701 64.72C16.8167 64.98 17.1467 65.1933 17.5601 65.36C17.9801 65.52 18.4201 65.6 18.8801 65.6C19.5467 65.6 20.0501 65.4733 20.3901 65.22C20.7301 64.9667 20.9001 64.6367 20.9001 64.23C20.9001 63.9167 20.8101 63.6667 20.6301 63.48C20.4501 63.2933 20.2267 63.15 19.9601 63.05C19.6934 62.95 19.3334 62.8467 18.8801 62.74C18.3667 62.6133 17.9534 62.49 17.6401 62.37C17.3334 62.25 17.0701 62.0667 16.8501 61.82C16.6367 61.5667 16.5301 61.23 16.5301 60.81C16.5301 60.47 16.6201 60.16 16.8001 59.88C16.9801 59.5933 17.2534 59.3667 17.6201 59.2C17.9934 59.0333 18.4567 58.95 19.0101 58.95C19.3967 58.95 19.7767 59.0067 20.1501 59.12C20.5234 59.2333 20.8467 59.3867 21.1201 59.58L20.9301 59.99C20.6501 59.7967 20.3401 59.65 20.0001 59.55C19.6667 59.45 19.3367 59.4 19.0101 59.4C18.3634 59.4 17.8734 59.53 17.5401 59.79C17.2067 60.05 17.0401 60.3867 17.0401 60.8C17.0401 61.1133 17.1301 61.3633 17.3101 61.55C17.4901 61.7367 17.7134 61.88 17.9801 61.98C18.2467 62.08 18.6101 62.1867 19.0701 62.3C19.5834 62.4267 19.9934 62.55 20.3001 62.67C20.6067 62.79 20.8667 62.9733 21.0801 63.22C21.3001 63.46 21.4101 63.7867 21.4101 64.2C21.4101 64.54 21.3167 64.85 21.1301 65.13C20.9501 65.41 20.6701 65.6333 20.2901 65.8C19.9101 65.9667 19.4434 66.05 18.8901 66.05ZM25.5238 66.04C25.0305 66.04 24.5838 65.9267 24.1838 65.7C23.7905 65.4733 23.4805 65.16 23.2538 64.76C23.0272 64.3533 22.9138 63.8967 22.9138 63.39C22.9138 62.8833 23.0272 62.43 23.2538 62.03C23.4805 61.6233 23.7905 61.3067 24.1838 61.08C24.5838 60.8533 25.0305 60.74 25.5238 60.74C26.0172 60.74 26.4605 60.8533 26.8538 61.08C27.2538 61.3067 27.5672 61.6233 27.7938 62.03C28.0205 62.43 28.1338 62.8833 28.1338 63.39C28.1338 63.8967 28.0205 64.3533 27.7938 64.76C27.5672 65.16 27.2538 65.4733 26.8538 65.7C26.4605 65.9267 26.0172 66.04 25.5238 66.04ZM25.5238 65.59C25.9238 65.59 26.2805 65.4967 26.5938 65.31C26.9138 65.1233 27.1638 64.8633 27.3438 64.53C27.5305 64.1967 27.6238 63.8167 27.6238 63.39C27.6238 62.9633 27.5305 62.5833 27.3438 62.25C27.1638 61.9167 26.9138 61.6567 26.5938 61.47C26.2805 61.2833 25.9238 61.19 25.5238 61.19C25.1238 61.19 24.7638 61.2833 24.4438 61.47C24.1305 61.6567 23.8805 61.9167 23.6938 62.25C23.5138 62.5833 23.4238 62.9633 23.4238 63.39C23.4238 63.8167 23.5138 64.1967 23.6938 64.53C23.8805 64.8633 24.1305 65.1233 24.4438 65.31C24.7638 65.4967 25.1238 65.59 25.5238 65.59ZM31.755 58.97C31.1017 58.97 30.775 59.32 30.775 60.02V60.78H32.445V61.21H30.785V66H30.285V61.21H29.325V60.78H30.285V59.98C30.285 59.54 30.4117 59.19 30.665 58.93C30.9183 58.67 31.275 58.54 31.735 58.54C31.935 58.54 32.125 58.57 32.305 58.63C32.4917 58.6833 32.645 58.7667 32.765 58.88L32.565 59.26C32.3517 59.0667 32.0817 58.97 31.755 58.97ZM36.5563 65.67C36.4296 65.79 36.2696 65.8833 36.0763 65.95C35.8896 66.01 35.6929 66.04 35.4863 66.04C35.0329 66.04 34.6829 65.9167 34.4363 65.67C34.1896 65.4167 34.0663 65.0667 34.0663 64.62V61.21H33.1063V60.78H34.0663V59.64H34.5663V60.78H36.2263V61.21H34.5663V64.57C34.5663 64.91 34.6463 65.17 34.8063 65.35C34.9729 65.5233 35.2163 65.61 35.5363 65.61C35.8629 65.61 36.1329 65.5133 36.3463 65.32L36.5563 65.67ZM45.813 60.78L43.833 66H43.363L41.603 61.47L39.833 66H39.373L37.393 60.78H37.873L39.613 65.44L41.393 60.78H41.823L43.593 65.43L45.353 60.78H45.813ZM49.0798 60.74C49.7264 60.74 50.2231 60.9067 50.5698 61.24C50.9164 61.5667 51.0898 62.05 51.0898 62.69V66H50.6098V65.07C50.4431 65.3767 50.1998 65.6167 49.8798 65.79C49.5598 65.9567 49.1764 66.04 48.7298 66.04C48.1498 66.04 47.6898 65.9033 47.3498 65.63C47.0164 65.3567 46.8498 64.9967 46.8498 64.55C46.8498 64.1167 47.0031 63.7667 47.3098 63.5C47.6231 63.2267 48.1198 63.09 48.7998 63.09H50.5898V62.67C50.5898 62.1833 50.4564 61.8133 50.1898 61.56C49.9298 61.3067 49.5464 61.18 49.0398 61.18C48.6931 61.18 48.3598 61.24 48.0398 61.36C47.7264 61.48 47.4598 61.64 47.2398 61.84L46.9898 61.48C47.2498 61.2467 47.5631 61.0667 47.9298 60.94C48.2964 60.8067 48.6798 60.74 49.0798 60.74ZM48.7998 65.63C49.2331 65.63 49.5998 65.53 49.8998 65.33C50.2064 65.13 50.4364 64.84 50.5898 64.46V63.48H48.8098C48.2964 63.48 47.9231 63.5733 47.6898 63.76C47.4631 63.9467 47.3498 64.2033 47.3498 64.53C47.3498 64.87 47.4764 65.14 47.7298 65.34C47.9831 65.5333 48.3398 65.63 48.7998 65.63ZM54.1298 61.92C54.2898 61.54 54.5398 61.25 54.8798 61.05C55.2198 60.8433 55.6332 60.74 56.1198 60.74V61.23L55.9998 61.22C55.4198 61.22 54.9665 61.4033 54.6398 61.77C54.3132 62.13 54.1498 62.6333 54.1498 63.28V66H53.6498V60.78H54.1298V61.92ZM62.3587 63.51H57.8687C57.882 63.9167 57.9853 64.28 58.1787 64.6C58.372 64.9133 58.632 65.1567 58.9587 65.33C59.292 65.5033 59.6653 65.59 60.0787 65.59C60.4187 65.59 60.732 65.53 61.0187 65.41C61.312 65.2833 61.5553 65.1 61.7487 64.86L62.0387 65.19C61.812 65.4633 61.5253 65.6733 61.1787 65.82C60.8387 65.9667 60.4687 66.04 60.0687 66.04C59.5487 66.04 59.0853 65.9267 58.6787 65.7C58.272 65.4733 57.952 65.16 57.7187 64.76C57.492 64.36 57.3787 63.9033 57.3787 63.39C57.3787 62.8833 57.4853 62.43 57.6987 62.03C57.9187 61.6233 58.2187 61.3067 58.5987 61.08C58.9787 60.8533 59.4053 60.74 59.8787 60.74C60.352 60.74 60.7753 60.8533 61.1487 61.08C61.5287 61.3 61.8253 61.61 62.0387 62.01C62.2587 62.41 62.3687 62.8633 62.3687 63.37L62.3587 63.51ZM59.8787 61.18C59.512 61.18 59.182 61.2633 58.8887 61.43C58.5953 61.59 58.3587 61.82 58.1787 62.12C58.0053 62.4133 57.9053 62.7467 57.8787 63.12H61.8787C61.8587 62.7467 61.7587 62.4133 61.5787 62.12C61.3987 61.8267 61.162 61.5967 60.8687 61.43C60.5753 61.2633 60.2453 61.18 59.8787 61.18ZM72.1238 58.58V66H71.6338V64.77C71.4272 65.1767 71.1372 65.49 70.7638 65.71C70.3905 65.93 69.9672 66.04 69.4938 66.04C69.0072 66.04 68.5672 65.9267 68.1738 65.7C67.7805 65.4733 67.4705 65.16 67.2438 64.76C67.0238 64.36 66.9138 63.9033 66.9138 63.39C66.9138 62.8767 67.0238 62.42 67.2438 62.02C67.4705 61.6133 67.7805 61.3 68.1738 61.08C68.5672 60.8533 69.0072 60.74 69.4938 60.74C69.9605 60.74 70.3772 60.85 70.7438 61.07C71.1172 61.29 71.4105 61.5967 71.6238 61.99V58.58H72.1238ZM69.5238 65.59C69.9238 65.59 70.2805 65.4967 70.5938 65.31C70.9138 65.1233 71.1638 64.8633 71.3438 64.53C71.5305 64.1967 71.6238 63.8167 71.6238 63.39C71.6238 62.9633 71.5305 62.5833 71.3438 62.25C71.1638 61.9167 70.9138 61.6567 70.5938 61.47C70.2805 61.2833 69.9238 61.19 69.5238 61.19C69.1238 61.19 68.7638 61.2833 68.4438 61.47C68.1305 61.6567 67.8805 61.9167 67.6938 62.25C67.5138 62.5833 67.4238 62.9633 67.4238 63.39C67.4238 63.8167 67.5138 64.1967 67.6938 64.53C67.8805 64.8633 68.1305 65.1233 68.4438 65.31C68.7638 65.4967 69.1238 65.59 69.5238 65.59ZM79.1419 63.51H74.6519C74.6652 63.9167 74.7685 64.28 74.9619 64.6C75.1552 64.9133 75.4152 65.1567 75.7419 65.33C76.0752 65.5033 76.4485 65.59 76.8619 65.59C77.2019 65.59 77.5152 65.53 77.8019 65.41C78.0952 65.2833 78.3385 65.1 78.5319 64.86L78.8219 65.19C78.5952 65.4633 78.3085 65.6733 77.9619 65.82C77.6219 65.9667 77.2519 66.04 76.8519 66.04C76.3319 66.04 75.8685 65.9267 75.4619 65.7C75.0552 65.4733 74.7352 65.16 74.5019 64.76C74.2752 64.36 74.1619 63.9033 74.1619 63.39C74.1619 62.8833 74.2685 62.43 74.4819 62.03C74.7019 61.6233 75.0019 61.3067 75.3819 61.08C75.7619 60.8533 76.1885 60.74 76.6619 60.74C77.1352 60.74 77.5585 60.8533 77.9319 61.08C78.3119 61.3 78.6085 61.61 78.8219 62.01C79.0419 62.41 79.1519 62.8633 79.1519 63.37L79.1419 63.51ZM76.6619 61.18C76.2952 61.18 75.9652 61.2633 75.6719 61.43C75.3785 61.59 75.1419 61.82 74.9619 62.12C74.7885 62.4133 74.6885 62.7467 74.6619 63.12H78.6619C78.6419 62.7467 78.5419 62.4133 78.3619 62.12C78.1819 61.8267 77.9452 61.5967 77.6519 61.43C77.3585 61.2633 77.0285 61.18 76.6619 61.18ZM88.967 60.78V65.44C88.967 66.3067 88.757 66.9467 88.337 67.36C87.917 67.7733 87.2837 67.98 86.437 67.98C85.957 67.98 85.5037 67.9067 85.077 67.76C84.6504 67.6133 84.307 67.41 84.047 67.15L84.317 66.77C84.577 67.01 84.8904 67.1967 85.257 67.33C85.6237 67.4633 86.0137 67.53 86.427 67.53C87.1204 67.53 87.6337 67.3633 87.967 67.03C88.3004 66.7033 88.467 66.1933 88.467 65.5V64.62C88.2537 65 87.957 65.2933 87.577 65.5C87.197 65.7067 86.7704 65.81 86.297 65.81C85.8104 65.81 85.367 65.7033 84.967 65.49C84.5737 65.27 84.2637 64.9667 84.037 64.58C83.8104 64.1933 83.697 63.7567 83.697 63.27C83.697 62.7833 83.8104 62.3467 84.037 61.96C84.2637 61.5733 84.5737 61.2733 84.967 61.06C85.367 60.8467 85.8104 60.74 86.297 60.74C86.777 60.74 87.2104 60.8467 87.597 61.06C87.9837 61.2733 88.2804 61.5733 88.487 61.96V60.78H88.967ZM86.337 65.36C86.7437 65.36 87.1104 65.2733 87.437 65.1C87.7637 64.92 88.017 64.6733 88.197 64.36C88.3837 64.04 88.477 63.6767 88.477 63.27C88.477 62.8633 88.3837 62.5033 88.197 62.19C88.017 61.8767 87.7637 61.6333 87.437 61.46C87.1104 61.28 86.7437 61.19 86.337 61.19C85.9304 61.19 85.5637 61.28 85.237 61.46C84.917 61.6333 84.6637 61.8767 84.477 62.19C84.297 62.5033 84.207 62.8633 84.207 63.27C84.207 63.6767 84.297 64.04 84.477 64.36C84.6637 64.6733 84.917 64.92 85.237 65.1C85.5637 65.2733 85.9304 65.36 86.337 65.36ZM95.9934 63.51H91.5034C91.5168 63.9167 91.6201 64.28 91.8134 64.6C92.0068 64.9133 92.2668 65.1567 92.5934 65.33C92.9268 65.5033 93.3001 65.59 93.7134 65.59C94.0534 65.59 94.3668 65.53 94.6534 65.41C94.9468 65.2833 95.1901 65.1 95.3834 64.86L95.6734 65.19C95.4468 65.4633 95.1601 65.6733 94.8134 65.82C94.4734 65.9667 94.1034 66.04 93.7034 66.04C93.1834 66.04 92.7201 65.9267 92.3134 65.7C91.9068 65.4733 91.5868 65.16 91.3534 64.76C91.1268 64.36 91.0134 63.9033 91.0134 63.39C91.0134 62.8833 91.1201 62.43 91.3334 62.03C91.5534 61.6233 91.8534 61.3067 92.2334 61.08C92.6134 60.8533 93.0401 60.74 93.5134 60.74C93.9868 60.74 94.4101 60.8533 94.7834 61.08C95.1634 61.3 95.4601 61.61 95.6734 62.01C95.8934 62.41 96.0034 62.8633 96.0034 63.37L95.9934 63.51ZM93.5134 61.18C93.1468 61.18 92.8168 61.2633 92.5234 61.43C92.2301 61.59 91.9934 61.82 91.8134 62.12C91.6401 62.4133 91.5401 62.7467 91.5134 63.12H95.5134C95.4934 62.7467 95.3934 62.4133 95.2134 62.12C95.0334 61.8267 94.7968 61.5967 94.5034 61.43C94.2101 61.2633 93.8801 61.18 93.5134 61.18ZM99.3702 66.04C98.9502 66.04 98.5502 65.9767 98.1702 65.85C97.7902 65.7233 97.4936 65.5633 97.2802 65.37L97.5102 64.97C97.7236 65.15 97.9969 65.3 98.3302 65.42C98.6702 65.54 99.0236 65.6 99.3902 65.6C99.9169 65.6 100.304 65.5133 100.55 65.34C100.804 65.1667 100.93 64.9267 100.93 64.62C100.93 64.4 100.86 64.2267 100.72 64.1C100.587 63.9733 100.42 63.88 100.22 63.82C100.02 63.76 99.7436 63.6967 99.3902 63.63C98.9769 63.5567 98.6436 63.4767 98.3902 63.39C98.1369 63.3033 97.9202 63.1633 97.7402 62.97C97.5602 62.7767 97.4702 62.51 97.4702 62.17C97.4702 61.7567 97.6402 61.4167 97.9802 61.15C98.3269 60.8767 98.8169 60.74 99.4502 60.74C99.7836 60.74 100.114 60.7867 100.44 60.88C100.767 60.9733 101.034 61.0967 101.24 61.25L101.01 61.65C100.797 61.4967 100.554 61.38 100.28 61.3C100.007 61.22 99.7269 61.18 99.4402 61.18C98.9536 61.18 98.5869 61.27 98.3402 61.45C98.0936 61.63 97.9702 61.8667 97.9702 62.16C97.9702 62.3933 98.0402 62.5767 98.1802 62.71C98.3202 62.8367 98.4902 62.9333 98.6902 63C98.8969 63.06 99.1836 63.1267 99.5502 63.2C99.9569 63.2733 100.284 63.3533 100.53 63.44C100.784 63.52 100.997 63.6533 101.17 63.84C101.344 64.0267 101.43 64.2833 101.43 64.61C101.43 65.0433 101.25 65.39 100.89 65.65C100.53 65.91 100.024 66.04 99.3702 66.04ZM105.916 65.67C105.789 65.79 105.629 65.8833 105.436 65.95C105.249 66.01 105.052 66.04 104.846 66.04C104.392 66.04 104.042 65.9167 103.796 65.67C103.549 65.4167 103.426 65.0667 103.426 64.62V61.21H102.466V60.78H103.426V59.64H103.926V60.78H105.586V61.21H103.926V64.57C103.926 64.91 104.006 65.17 104.166 65.35C104.332 65.5233 104.576 65.61 104.896 65.61C105.222 65.61 105.492 65.5133 105.706 65.32L105.916 65.67ZM109.57 60.74C110.217 60.74 110.713 60.9067 111.06 61.24C111.407 61.5667 111.58 62.05 111.58 62.69V66H111.1V65.07C110.933 65.3767 110.69 65.6167 110.37 65.79C110.05 65.9567 109.667 66.04 109.22 66.04C108.64 66.04 108.18 65.9033 107.84 65.63C107.507 65.3567 107.34 64.9967 107.34 64.55C107.34 64.1167 107.493 63.7667 107.8 63.5C108.113 63.2267 108.61 63.09 109.29 63.09H111.08V62.67C111.08 62.1833 110.947 61.8133 110.68 61.56C110.42 61.3067 110.037 61.18 109.53 61.18C109.183 61.18 108.85 61.24 108.53 61.36C108.217 61.48 107.95 61.64 107.73 61.84L107.48 61.48C107.74 61.2467 108.053 61.0667 108.42 60.94C108.787 60.8067 109.17 60.74 109.57 60.74ZM109.29 65.63C109.723 65.63 110.09 65.53 110.39 65.33C110.697 65.13 110.927 64.84 111.08 64.46V63.48H109.3C108.787 63.48 108.413 63.5733 108.18 63.76C107.953 63.9467 107.84 64.2033 107.84 64.53C107.84 64.87 107.967 65.14 108.22 65.34C108.473 65.5333 108.83 65.63 109.29 65.63ZM110.21 59.85C110.063 59.85 109.93 59.8167 109.81 59.75C109.697 59.6767 109.577 59.58 109.45 59.46C109.337 59.36 109.24 59.2867 109.16 59.24C109.087 59.1867 109.007 59.16 108.92 59.16C108.767 59.16 108.643 59.22 108.55 59.34C108.457 59.4533 108.403 59.61 108.39 59.81H108.06C108.073 59.51 108.153 59.27 108.3 59.09C108.447 58.9033 108.643 58.81 108.89 58.81C109.037 58.81 109.167 58.8467 109.28 58.92C109.4 58.9867 109.523 59.08 109.65 59.2C109.763 59.3 109.857 59.3767 109.93 59.43C110.01 59.4767 110.093 59.5 110.18 59.5C110.333 59.5 110.457 59.4433 110.55 59.33C110.643 59.2167 110.697 59.0633 110.71 58.87H111.04C111.027 59.1633 110.943 59.4 110.79 59.58C110.643 59.76 110.45 59.85 110.21 59.85ZM116.19 66.04C115.697 66.04 115.25 65.9267 114.85 65.7C114.457 65.4733 114.147 65.16 113.92 64.76C113.693 64.3533 113.58 63.8967 113.58 63.39C113.58 62.8833 113.693 62.43 113.92 62.03C114.147 61.6233 114.457 61.3067 114.85 61.08C115.25 60.8533 115.697 60.74 116.19 60.74C116.683 60.74 117.127 60.8533 117.52 61.08C117.92 61.3067 118.233 61.6233 118.46 62.03C118.687 62.43 118.8 62.8833 118.8 63.39C118.8 63.8967 118.687 64.3533 118.46 64.76C118.233 65.16 117.92 65.4733 117.52 65.7C117.127 65.9267 116.683 66.04 116.19 66.04ZM116.19 65.59C116.59 65.59 116.947 65.4967 117.26 65.31C117.58 65.1233 117.83 64.8633 118.01 64.53C118.197 64.1967 118.29 63.8167 118.29 63.39C118.29 62.9633 118.197 62.5833 118.01 62.25C117.83 61.9167 117.58 61.6567 117.26 61.47C116.947 61.2833 116.59 61.19 116.19 61.19C115.79 61.19 115.43 61.2833 115.11 61.47C114.797 61.6567 114.547 61.9167 114.36 62.25C114.18 62.5833 114.09 62.9633 114.09 63.39C114.09 63.8167 114.18 64.1967 114.36 64.53C114.547 64.8633 114.797 65.1233 115.11 65.31C115.43 65.4967 115.79 65.59 116.19 65.59ZM128.559 58.58V66H128.069V64.77C127.863 65.1767 127.573 65.49 127.199 65.71C126.826 65.93 126.403 66.04 125.929 66.04C125.443 66.04 125.003 65.9267 124.609 65.7C124.216 65.4733 123.906 65.16 123.679 64.76C123.459 64.36 123.349 63.9033 123.349 63.39C123.349 62.8767 123.459 62.42 123.679 62.02C123.906 61.6133 124.216 61.3 124.609 61.08C125.003 60.8533 125.443 60.74 125.929 60.74C126.396 60.74 126.813 60.85 127.179 61.07C127.553 61.29 127.846 61.5967 128.059 61.99V58.58H128.559ZM125.959 65.59C126.359 65.59 126.716 65.4967 127.029 65.31C127.349 65.1233 127.599 64.8633 127.779 64.53C127.966 64.1967 128.059 63.8167 128.059 63.39C128.059 62.9633 127.966 62.5833 127.779 62.25C127.599 61.9167 127.349 61.6567 127.029 61.47C126.716 61.2833 126.359 61.19 125.959 61.19C125.559 61.19 125.199 61.2833 124.879 61.47C124.566 61.6567 124.316 61.9167 124.129 62.25C123.949 62.5833 123.859 62.9633 123.859 63.39C123.859 63.8167 123.949 64.1967 124.129 64.53C124.316 64.8633 124.566 65.1233 124.879 65.31C125.199 65.4967 125.559 65.59 125.959 65.59ZM135.577 63.51H131.087C131.101 63.9167 131.204 64.28 131.397 64.6C131.591 64.9133 131.851 65.1567 132.177 65.33C132.511 65.5033 132.884 65.59 133.297 65.59C133.637 65.59 133.951 65.53 134.237 65.41C134.531 65.2833 134.774 65.1 134.967 64.86L135.257 65.19C135.031 65.4633 134.744 65.6733 134.397 65.82C134.057 65.9667 133.687 66.04 133.287 66.04C132.767 66.04 132.304 65.9267 131.897 65.7C131.491 65.4733 131.171 65.16 130.937 64.76C130.711 64.36 130.597 63.9033 130.597 63.39C130.597 62.8833 130.704 62.43 130.917 62.03C131.137 61.6233 131.437 61.3067 131.817 61.08C132.197 60.8533 132.624 60.74 133.097 60.74C133.571 60.74 133.994 60.8533 134.367 61.08C134.747 61.3 135.044 61.61 135.257 62.01C135.477 62.41 135.587 62.8633 135.587 63.37L135.577 63.51ZM133.097 61.18C132.731 61.18 132.401 61.2633 132.107 61.43C131.814 61.59 131.577 61.82 131.397 62.12C131.224 62.4133 131.124 62.7467 131.097 63.12H135.097C135.077 62.7467 134.977 62.4133 134.797 62.12C134.617 61.8267 134.381 61.5967 134.087 61.43C133.794 61.2633 133.464 61.18 133.097 61.18ZM141.183 61.92C141.343 61.54 141.593 61.25 141.933 61.05C142.273 60.8433 142.686 60.74 143.173 60.74V61.23L143.053 61.22C142.473 61.22 142.019 61.4033 141.693 61.77C141.366 62.13 141.203 62.6333 141.203 63.28V66H140.703V60.78H141.183V61.92ZM149.411 63.51H144.921C144.935 63.9167 145.038 64.28 145.231 64.6C145.425 64.9133 145.685 65.1567 146.011 65.33C146.345 65.5033 146.718 65.59 147.131 65.59C147.471 65.59 147.785 65.53 148.071 65.41C148.365 65.2833 148.608 65.1 148.801 64.86L149.091 65.19C148.865 65.4633 148.578 65.6733 148.231 65.82C147.891 65.9667 147.521 66.04 147.121 66.04C146.601 66.04 146.138 65.9267 145.731 65.7C145.325 65.4733 145.005 65.16 144.771 64.76C144.545 64.36 144.431 63.9033 144.431 63.39C144.431 62.8833 144.538 62.43 144.751 62.03C144.971 61.6233 145.271 61.3067 145.651 61.08C146.031 60.8533 146.458 60.74 146.931 60.74C147.405 60.74 147.828 60.8533 148.201 61.08C148.581 61.3 148.878 61.61 149.091 62.01C149.311 62.41 149.421 62.8633 149.421 63.37L149.411 63.51ZM146.931 61.18C146.565 61.18 146.235 61.2633 145.941 61.43C145.648 61.59 145.411 61.82 145.231 62.12C145.058 62.4133 144.958 62.7467 144.931 63.12H148.931C148.911 62.7467 148.811 62.4133 148.631 62.12C148.451 61.8267 148.215 61.5967 147.921 61.43C147.628 61.2633 147.298 61.18 146.931 61.18ZM155.561 60.78L153.201 66H152.691L150.341 60.78H150.871L152.951 65.45L155.051 60.78H155.561ZM161.417 63.51H156.927C156.941 63.9167 157.044 64.28 157.237 64.6C157.431 64.9133 157.691 65.1567 158.017 65.33C158.351 65.5033 158.724 65.59 159.137 65.59C159.477 65.59 159.791 65.53 160.077 65.41C160.371 65.2833 160.614 65.1 160.807 64.86L161.097 65.19C160.871 65.4633 160.584 65.6733 160.237 65.82C159.897 65.9667 159.527 66.04 159.127 66.04C158.607 66.04 158.144 65.9267 157.737 65.7C157.331 65.4733 157.011 65.16 156.777 64.76C156.551 64.36 156.437 63.9033 156.437 63.39C156.437 62.8833 156.544 62.43 156.757 62.03C156.977 61.6233 157.277 61.3067 157.657 61.08C158.037 60.8533 158.464 60.74 158.937 60.74C159.411 60.74 159.834 60.8533 160.207 61.08C160.587 61.3 160.884 61.61 161.097 62.01C161.317 62.41 161.427 62.8633 161.427 63.37L161.417 63.51ZM158.937 61.18C158.571 61.18 158.241 61.2633 157.947 61.43C157.654 61.59 157.417 61.82 157.237 62.12C157.064 62.4133 156.964 62.7467 156.937 63.12H160.937C160.917 62.7467 160.817 62.4133 160.637 62.12C160.457 61.8267 160.221 61.5967 159.927 61.43C159.634 61.2633 159.304 61.18 158.937 61.18ZM166.024 60.74C166.677 60.74 167.194 60.93 167.574 61.31C167.954 61.69 168.144 62.2367 168.144 62.95V66H167.644V62.99C167.644 62.4033 167.494 61.9567 167.194 61.65C166.901 61.3433 166.487 61.19 165.954 61.19C165.341 61.19 164.857 61.3733 164.504 61.74C164.151 62.1067 163.974 62.6 163.974 63.22V66H163.474V60.78H163.954V61.91C164.134 61.5433 164.401 61.2567 164.754 61.05C165.114 60.8433 165.537 60.74 166.024 60.74ZM175.352 58.58V66H174.862V64.77C174.656 65.1767 174.366 65.49 173.992 65.71C173.619 65.93 173.196 66.04 172.722 66.04C172.236 66.04 171.796 65.9267 171.402 65.7C171.009 65.4733 170.699 65.16 170.472 64.76C170.252 64.36 170.142 63.9033 170.142 63.39C170.142 62.8767 170.252 62.42 170.472 62.02C170.699 61.6133 171.009 61.3 171.402 61.08C171.796 60.8533 172.236 60.74 172.722 60.74C173.189 60.74 173.606 60.85 173.972 61.07C174.346 61.29 174.639 61.5967 174.852 61.99V58.58H175.352ZM172.752 65.59C173.152 65.59 173.509 65.4967 173.822 65.31C174.142 65.1233 174.392 64.8633 174.572 64.53C174.759 64.1967 174.852 63.8167 174.852 63.39C174.852 62.9633 174.759 62.5833 174.572 62.25C174.392 61.9167 174.142 61.6567 173.822 61.47C173.509 61.2833 173.152 61.19 172.752 61.19C172.352 61.19 171.992 61.2833 171.672 61.47C171.359 61.6567 171.109 61.9167 170.922 62.25C170.742 62.5833 170.652 62.9633 170.652 63.39C170.652 63.8167 170.742 64.1967 170.922 64.53C171.109 64.8633 171.359 65.1233 171.672 65.31C171.992 65.4967 172.352 65.59 172.752 65.59ZM179.72 60.74C180.367 60.74 180.864 60.9067 181.21 61.24C181.557 61.5667 181.73 62.05 181.73 62.69V66H181.25V65.07C181.084 65.3767 180.84 65.6167 180.52 65.79C180.2 65.9567 179.817 66.04 179.37 66.04C178.79 66.04 178.33 65.9033 177.99 65.63C177.657 65.3567 177.49 64.9967 177.49 64.55C177.49 64.1167 177.644 63.7667 177.95 63.5C178.264 63.2267 178.76 63.09 179.44 63.09H181.23V62.67C181.23 62.1833 181.097 61.8133 180.83 61.56C180.57 61.3067 180.187 61.18 179.68 61.18C179.334 61.18 179 61.24 178.68 61.36C178.367 61.48 178.1 61.64 177.88 61.84L177.63 61.48C177.89 61.2467 178.204 61.0667 178.57 60.94C178.937 60.8067 179.32 60.74 179.72 60.74ZM179.44 65.63C179.874 65.63 180.24 65.53 180.54 65.33C180.847 65.13 181.077 64.84 181.23 64.46V63.48H179.45C178.937 63.48 178.564 63.5733 178.33 63.76C178.104 63.9467 177.99 64.2033 177.99 64.53C177.99 64.87 178.117 65.14 178.37 65.34C178.624 65.5333 178.98 65.63 179.44 65.63ZM185.61 66.04C185.19 66.04 184.79 65.9767 184.41 65.85C184.03 65.7233 183.734 65.5633 183.52 65.37L183.75 64.97C183.964 65.15 184.237 65.3 184.57 65.42C184.91 65.54 185.264 65.6 185.63 65.6C186.157 65.6 186.544 65.5133 186.79 65.34C187.044 65.1667 187.17 64.9267 187.17 64.62C187.17 64.4 187.1 64.2267 186.96 64.1C186.827 63.9733 186.66 63.88 186.46 63.82C186.26 63.76 185.984 63.6967 185.63 63.63C185.217 63.5567 184.884 63.4767 184.63 63.39C184.377 63.3033 184.16 63.1633 183.98 62.97C183.8 62.7767 183.71 62.51 183.71 62.17C183.71 61.7567 183.88 61.4167 184.22 61.15C184.567 60.8767 185.057 60.74 185.69 60.74C186.024 60.74 186.354 60.7867 186.68 60.88C187.007 60.9733 187.274 61.0967 187.48 61.25L187.25 61.65C187.037 61.4967 186.794 61.38 186.52 61.3C186.247 61.22 185.967 61.18 185.68 61.18C185.194 61.18 184.827 61.27 184.58 61.45C184.334 61.63 184.21 61.8667 184.21 62.16C184.21 62.3933 184.28 62.5767 184.42 62.71C184.56 62.8367 184.73 62.9333 184.93 63C185.137 63.06 185.424 63.1267 185.79 63.2C186.197 63.2733 186.524 63.3533 186.77 63.44C187.024 63.52 187.237 63.6533 187.41 63.84C187.584 64.0267 187.67 64.2833 187.67 64.61C187.67 65.0433 187.49 65.39 187.13 65.65C186.77 65.91 186.264 66.04 185.61 66.04ZM198.384 59L195.264 66H194.754L191.634 59H192.194L195.024 65.34L197.854 59H198.384ZM199.785 60.78H200.285V66H199.785V60.78ZM200.035 59.51C199.921 59.51 199.825 59.4733 199.745 59.4C199.665 59.32 199.625 59.2233 199.625 59.11C199.625 58.9967 199.665 58.9 199.745 58.82C199.825 58.74 199.921 58.7 200.035 58.7C200.148 58.7 200.245 58.74 200.325 58.82C200.405 58.8933 200.445 58.9867 200.445 59.1C200.445 59.2133 200.405 59.31 200.325 59.39C200.245 59.47 200.148 59.51 200.035 59.51ZM207.082 60.78L204.722 66H204.212L201.862 60.78H202.392L204.472 65.45L206.572 60.78H207.082ZM210.569 66.04C210.075 66.04 209.629 65.9267 209.229 65.7C208.835 65.4733 208.525 65.16 208.299 64.76C208.072 64.3533 207.959 63.8967 207.959 63.39C207.959 62.8833 208.072 62.43 208.299 62.03C208.525 61.6233 208.835 61.3067 209.229 61.08C209.629 60.8533 210.075 60.74 210.569 60.74C211.062 60.74 211.505 60.8533 211.899 61.08C212.299 61.3067 212.612 61.6233 212.839 62.03C213.065 62.43 213.179 62.8833 213.179 63.39C213.179 63.8967 213.065 64.3533 212.839 64.76C212.612 65.16 212.299 65.4733 211.899 65.7C211.505 65.9267 211.062 66.04 210.569 66.04ZM210.569 65.59C210.969 65.59 211.325 65.4967 211.639 65.31C211.959 65.1233 212.209 64.8633 212.389 64.53C212.575 64.1967 212.669 63.8167 212.669 63.39C212.669 62.9633 212.575 62.5833 212.389 62.25C212.209 61.9167 211.959 61.6567 211.639 61.47C211.325 61.2833 210.969 61.19 210.569 61.19C210.169 61.19 209.809 61.2833 209.489 61.47C209.175 61.6567 208.925 61.9167 208.739 62.25C208.559 62.5833 208.469 62.9633 208.469 63.39C208.469 63.8167 208.559 64.1967 208.739 64.53C208.925 64.8633 209.175 65.1233 209.489 65.31C209.809 65.4967 210.169 65.59 210.569 65.59Z" fill="white"/>
</svg>
